<?xml version="1.0" encoding="UTF-8"?>
<svg version="1.1" viewBox="0 0 1200 1600" width="348" height="464" xmlns="http://www.w3.org/2000/svg">
<path transform="translate(0)" d="m0 0h1200v1600h-1200z" fill="#FBFBF9"/>
<path transform="translate(625,62)" d="m0 0 6 1 5 6 4 8 5 14 7 22 4 15 4 14 19 4 22 7 21 9 14 8 16 12 10 8v2l4 2 17 17 3 4-1 3-19 9h-2l1 3 16 8 19 12 14 11 13 11 7 6v2l-6 2v2l-6 4-5 6-6 12-5 19-1 7v15l4 28 3 13 1 1 5 35 1 14-11-3-20-6-21-6-5-2 10 16 7 11 7 10v2l-9 7-5 6-5 5-6 8-5 13-2 17-12-5-10-2h-9l-12 3-8 6-6 7-4 10v14l5 12 4 6 1 3h2v2l4 2 13 13 11 9 3 2v2l5 2v2l4 2 8 8 2 5h2l8 11 2 5-13 13-1 2h-2l-1 3-4-1-14-11-25-20-7-4 1 5 1 14v18l-1 23-2 10-5-2-12-9-5-5-10-8-11-10-14-10v-2l-6-2-7-1-4 2-3 5v13l7 14 8 7 7 8 12 11 10 10 4 11 4 27 1 4 1 14v23l-1 11-2 3-4-2-5-5-14-15-11-9-17-11-6-4-5 1-3 6-20 20-5 4-4 7-2 8v14l4 6 9 7 15 10 3 1v2l5 2 19 11 2 4h-9l-12-2-17-2-6-2 3 7 6 18 4 8 2 7 4 12 2 2 4 13 2 5 2 6 4 11 9 25 3 10 5 11 3 10 4 8 2 7 5 12 5 13 3 9 8 20 5 14 5 12 4 9v2l5-1h47l16 3 9 4 8 7 5 8 1 11-3 12-7 12 7 15 2 8v15l-4 10-5 6 1 6 8 11 12 20 2 3v3l-9-3-18-8-8-2h-37l-11 1-10 2-13 1-11 3-10 5-14 10-7 7-8 13-8 21-6 20-7 28-3 16-2 16v13l4 14 11 25 9 19 1 3 3-1 2-8 4-26 2-9 2-7 6-18 8-20 8-14 5-5 12-11 9-6 18-8 18-4 27-2 21 2 21 6 8 4 6 2v2l5 2 4 2 7 8 6 9 4 8 6 15 7 19 6 22 5 28 2 4 2 21-1 27-3 21-6 12-7 7-12 6-14 3-37 4-19 1h-24l-21-3-21-7-13-7-12-9-10-9-13-14-11-15-7-11-8-16-9-20-10-26-6-21-3-21-2-28-1-7v-24l3-11 2-15 2-8 3-14 6-22 2-9-7-4-2-1v28l-3 11-6 12-7 7-14 9-16 8-31 12-31 10-30 8-35 9-24 5-27 4-10 1-31 1-25-2-23-5-16-5-12-5-11-6-11-8-10-10-1-6 3 1 3 5 9 4 4 3v2h2l5 5 12 5 9 3 13 1 9 4 4-2 8-1 2 4 3-1 8-1 5 2 24-3 3 1v-2l3 1 13-3 10-1 2-1-16 1-11 1h-39l-21-3-21-5-9-3v-2l-8-1v-2l-10-3-1-3-8-4v-2h-2l-7-8 1-7 4-9 7-12 14-18 14-15 7-8 10-10 11-9 15-12 22-15 4-2 7-9 20-13 26-14 27-13 6-2 14-1-3-15 1-12 1-2v-6l-7-8-4-9-1-6v-13l3-7 6-7 7-3 12-5 11-2-1-16-7-64-4-39-6-66-1-19-2-14 1-9h-5l2-4 1-1v-19l-2-19-3-23-2-21v-29l-2-1-4-8-6-9 1-3 4-1v-2l10-4 4-8 5-14 8-13-25 5-22 5h-6l-6-10-8-16-11-23-19-48-11-27-11-31-11-27-10-27-6-24-2-12v-11l1-10-11-12-8-8-10-13-11-15-11-16-10-16-8-13-14-24-13-24-3-7v-8l6-5 3-1h19l20 3 28 6 49 12 22 4 2-4 8-9 8-10 12-13 12-11 16-12 24-14 19-9 24-9 32-8 26-4 18-2 12-17 13-17 9-10 1-2h2l2-4 13-14 10-8z" fill="#162CB1"/>
<path transform="translate(500,834)" d="m0 0 12 2 16 4 3 4 7 19 18 52 10 29 4 16 4 9 3 9 28 88 1 7 5 12 2 9 3 7 4 11 3 15 4 7 14 7 13 2h10l26-4 6-3-4-10-2-7-3-9-1-6-2-1 5-1h47l16 3 9 4 8 7 5 8 1 11-3 12-7 12 7 15 2 8v15l-4 10-5 6 1 6 8 11 12 20 2 3v3l-9-3-18-8-8-2h-37l-11 1-10 2-13 1-11 3-10 5-14 10-7 7-8 13-8 21-6 20-7 28-3 16-2 16v13l4 14 11 25 9 19 1 3 3-1 2-8 4-26 2-9 2-7 6-18 8-20 8-14 5-5 12-11 9-6 18-8 18-4 27-2 21 2 21 6 8 4 6 2v2l5 2 4 2 7 8 6 9 4 8 6 15 7 19 6 22 5 28 2 4 2 21-1 27-3 21-6 12-7 7-12 6-14 3-37 4-19 1h-24l-21-3-21-7-13-7-12-9-10-9-13-14-11-15-7-11-8-16-9-20-10-26-6-21-3-21-2-28-1-7v-24l3-11 2-15 2-8 3-14 6-22 2-9-7-4-2-1v28l-3 11-6 12-7 7-14 9-16 8-31 12-31 10-30 8-35 9-24 5-27 4-10 1-31 1-25-2-23-5-16-5-12-5-11-6-11-8-10-10-1-6 3 1 3 5 9 4 4 3v2h2l5 5 12 5 9 3 13 1 9 4 4-2 8-1 2 4 3-1 8-1 5 2 24-3 3 1v-2l3 1 13-3 10-1 2-1-16 1-11 1h-39l-21-3-21-5-9-3v-2l-8-1v-2l-10-3-1-3-8-4v-2h-2l-7-8 1-7 4-9 7-12 14-18 14-15 7-8 10-10 11-9 15-12 22-15 4-2 7-9 20-13 26-14 27-13 6-2 14-1-3-15 1-12 1-2v-6l-7-8-4-9-1-6v-13l3-7 6-7 7-3 12-5 11-2 1-2 3 16 2 14-1 11 4 3 10 3h26l28-7-4-16-3-20-2-6-6-27-4-21-4-27-2-9-5-44-3-24-3-17-3-22z" fill="#C9CCCE"/>
<path transform="translate(575,290)" d="m0 0h18l10 3 10 6 11 11 9 14 7 17 6 24 2 13v35l-5 25-7 24-3 8 1 1 12 2 6 4 5 9 2 9-1 14-5 17-8 16-7 11-6 7-8 7-6 7-14 11-16 9-16 7-13 4-19 4 5 4 9 2 14 7 9 8 6 10 5 15 3 16v20l-3 15-5 17-5 11-6 12-7 11-9 12-11 13-11 10-17 10-14 4h-14l-15-5-10-7-9-10-7-14-3-12-3-24v-22l3-25 5-22 5-13 6-10 9-12 10-9 7-5h2v-2h-17l-14-2-5-2-16-4-15-6-14-8-10-8-12-12-7-10-4-8-1-5 5-5h12l-4-6-8-9-7-10-13-21-11-23-9-24-6-22-2-10v-13l3-5 6-2 7 3 6 4 9 8v2h2v2h2v2l3 1v2l4 2 1 3 4 2 18 21v3l4 2 3 3 4 16 3 5v-8l3 4 2 8 3 5 6 2 4 6 2 13 7-1v6h2l5 8v2l4 1 7 4h20l8-4 4-6-1-8-4-2-8-8v-5l10-3 5-1v-2l8-7 7-14 6-18 1-11 1-1 3-31 1-29 2-16h2l1-10 6-20 8-16 2-3h2l2-5 7-7 5-2v-2l14-7z" fill="#D9A969"/>
<path transform="translate(846,276)" d="m0 0 9 1 6 3 7 7 4 11 1 28 10 18 3 7 8 19 3 6 7 25 6 23 2 15 6 34v6l-20-9-14-6 1 5 4 2 12 11 9 10 7 9 13 15 6 7 8 16 4 16 1 10v9l-3 22-5 19-9 22-8 16-8 14h-2l-2 5-12 15 1 9 1 6v8l-5 12-3 1-1 4-9 8-8 7-5 5-9 10-7 5-4 4-12 5-12 3-7 1h-13l-16-3-10-4-14-10-9-9-31-1-16-4-13-7-13-10-13-12-2-1-2 3-3-9-17-17-8-7-3-3v-2l-4-2-7-8-5-11v-13l3-5 4-3h6l8 4v2l5 2 13 11 10 9 12 9v2l4 2 11 8 2 1 1-10 1-23v-18l-1-19 4 1 28 22 15 12h3l1-2h2l2-4 11-11-2-5-7-9v-2h-2l-6-8-8-7v-2l-5-2v-2l-4-2-14-12-11-11-2-1v-2h-2l-7-10-4-11v-14l4-10 7-8 8-6 12-3h9l13 3 8 4 2-16 6-15 9-11 5-4 9-9h2l-8-12-12-19-4-6v-2l5 1 21 6 29 9 2 1-7-49-2-6-3-15-3-21v-15l4-20 4-11h1l2 18 2 6 1 8 4 8 6 8 6 4 8-1 2-4 4-6 7-14 3-8 5-16v-15l-3-5-8-4-12-1 1-2z" fill="#C9CCCE"/>
<path transform="translate(329,450)" d="m0 0 4 1 4 6h2v3l4-1 10 25 11 21 9 14 9 12 9 11v2l-14 2-2 5 4 9 6 9 9 10 7 7 14 9 14 7 18 6 7 2 9 2 15 1h9l2 1v2l-11 8-9 8-9 13-7 14-4 13-4 22-2 18v22l4 30 6 15 8 11 8 7 10 5 10 3h14l16-5 15-9 14-13 11-14 9-13 8-14 5-13 4-10 4-16 1-7v-20l-4-20-5-13-7-10-9-7-14-6-8-2-4-4 6-2 21-5 16-6 19-10 13-10 16-16 3 1-1 4 7-4 5-5 8-1 17 4h9l7 3 6 1 3-1v-5l4 4 4 6 1 3h2v2l4 2 13 13 11 9 3 2v2l5 2v2l4 2 8 8 2 5h2l8 11 2 5-13 13-1 2h-2l-1 3-4-1-14-11-25-20-7-4 1 5 1 14v18l-1 23-2 10-5-2-12-9-5-5-10-8-11-10-14-10v-2l-6-2-7-1-4 2-3 5v13l7 14 8 7 7 8 12 11 10 10 4 11 4 27 1 4 1 14v23l-1 11-2 3-4-2-5-5-14-15-11-9-17-11-6-4-5 1-3 6-20 20-5 4-4 7-2 8v14l4 6 9 7 15 10 3 1v2l5 2 19 11 2 4h-9l-12-2-17-2-6-2 3 7 6 18 4 8 2 7 4 12 2 2 4 13 2 5 2 6 4 11 9 25 3 10 5 11 3 10 4 8 2 7 5 12 5 13 3 9 8 20 5 14 5 12 4 9v3h2l4 14 2 3 3 10 2 6-7 3-26 4h-10l-16-3-11-6-5-8-4-18-3-8-3-7-3-12-4-9-2-10-22-69-6-19-4-9-4-16-3-9-16-47-16-45-4-8-16-4-8-1-4-2 4 33 4 26 6 48 2 17 3 16 5 30 5 23 3 14 1 1 3 20 3 13v3l-15 5-13 3h-26l-12-4-3-4 1-10-4-26-8-71-5-50-6-66-1-19-2-14 1-9h-5l2-4 1-1v-19l-2-19-3-23-2-21v-29l-2-1-4-8-6-9 1-3 4-1v-2l10-4 4-8 5-14 8-13-25 5-22 5h-6l-6-10-8-16-11-23-19-48-11-27-11-31-5-12v-8l-2-3-1-12z" fill="#162CB1"/>
<path transform="translate(625,62)" d="m0 0 6 1-2 10-8 6-8 8-5 7h-2l-3 6h-2l-2 5-8 10-6 8-10 13-6 9-5 9-4 6-6 11-7 22-1 9-6 5-2 3-3 12 1 13 5 6v2l6 1 3 4 7 2 1 4 11 3 2 1h7l7 2-2 4h-6l-2-1-1 2h-5l-3 2h-7l-2 4-7 4-6 4-7 7-6 5-5 7-7 14-6 15-6 27-4 20-2 13-1 7-3 13-2 4-7 20-4 6-4 1v2l-6 3h-2l-2 5-4 3-6-10-3-7v-3h-2l-3-6-8-5v-2h-5l3 13 1 12 1 3-2 12-2 2-9 3-5 2-11 1-5-2v-2h-2v-2h-2v-2l-4-2-5-7v-2l-4-2-4-5-3-4v-2l-4-2-7-7v-2l-3-1-7-8v-2l-4-2v-2l-5-2-1-3-4-2-9-5v-2l-6-2-16-5h-5l-1-3-2-1-1 14v8h-1l-1-6v-11l1-10-11-12-8-8-10-13-11-15-11-16-10-16-8-13-14-24-13-24-3-7v-8l6-5 3-1h19l20 3 28 6 49 12 22 4 2-4 8-9 8-10 12-13 12-11 16-12 24-14 19-9 24-9 32-8 26-4 18-2 12-17 13-17 9-10 1-2h2l2-4 13-14 10-8z" fill="#2E3FFA"/>
<path transform="translate(761,1216)" d="m0 0 4 1 14 21 9 15v3l-9-3-18-8-8-2h-37l-11 1-10 2-13 1-11 3-10 5-14 10-7 7-8 13-8 21-6 20-7 28-3 16-2 16v13l4 14 11 25 9 19 1 3 3-1 2-8 4-26 2-9 2-7 6-18 8-20 8-14 5-5 12-11 9-6 18-8 18-4 27-2 21 2 21 6 8 4 6 2v2l5 2 4 2 7 8 6 9 4 8 6 15 7 19 6 22 5 28 2 4 2 21-1 27-3 21-6 12-7 7-12 6-14 3-37 4-19 1h-24l-21-3-21-7-13-7-12-9-10-9-13-14-11-15-7-11-8-16-9-20-10-26-6-21-3-21-2-28-1-7v-24l3-11 2-15 2-8 3-14 6-22 3-8h3v2l8 1 4 1 22 1 24-2 18-3h10v-2l12-2 15-5h3v-2l7-1v-2l8-2v-2l9-4z" fill="#C21E1E"/>
<path transform="translate(454,634)" d="m0 0h3l-2 5-6 10-6 17-4 5-9 2v2l-4 2 2 5 7 11v3l3 1v29l4 39 2 12 1 12v19l-4 5h5v10l2 13 2 31 5 54 1 14h-2l-2 6-7 12-11 12-11 9-13 8-14 6-17 4-7 2h-29l-21-3-10-3-9-6-5-4-9-11-7-7-6-9-1-6 4 5 7 8 10 7 16 8 14 4h11l12-6 4-4 5-4 1-2h2l2-4 6-10 2-6 2-5 9-24 5-14 8-16 3-11 2-7-9-4-13-5-1-1-17-2-5 4-6 10-4 13-2 12-1 2-4 43-4 3h-13l-6-2h-20l-3-1 1-5 3-7 1-9 2-1 9 4 6-2 4-2 3-6-1-6-10-3-4-1-13 4-6 2 5-5 11-7v-9h-5v2l-5 5-2 1 2-5 8-9 5-3 8 1 10 5v-13l4-8 8-7 13-4 10-1 8-10v-15l-14-5-8-6-3-6-1-14 7-8 9-6 8-4 6-2-4-10-13-38-3-12-1-8v-17l3-10 6-10 5-6 13-8 11-2v-2l12-2 4-2 44-9z" fill="#CACDCF"/>
<path transform="translate(761,1216)" d="m0 0 4 1 14 21 9 15v3l-9-3-18-8-8-2h-37l-11 1-10 2-13 1-11 3-10 5-14 10-7 7-8 13-8 21-6 20-7 28-3 16-2 16v13l4 14 11 25 9 19 1 3 3-1 2-8 4-26 2-9 2-7 6-18 8-20 8-14 4-4-1 7-2-1-4 12h-2l1 11-2 7v7h7l3 3 5 16 4 5 4 9 5 10 4 12 7 11 4 6 5 8v2h2l2 5 3 1 3 4v2l7 2 10 8 5 8 2 9 5 8v2l7 2 6 2h16l9-1v-2l6-2 10-5 10-4h2l1-7 4-2 4-8 2-15v-16l-1-16 1-5v-1l2-5v-36l-2-20-4-19-1-2-2 1-1-3-2-1v-2l-2-1v-9l3 1-3-7-3-1-1-4-4-2v-2h-2v-2l9 2v2l5 2 4 2 7 8 6 9 4 8 6 15 7 19 6 22 5 28 2 4 2 21-1 27-3 21-6 12-7 7-12 6-14 3-37 4-19 1h-24l-21-3-21-7-13-7-12-9-10-9-13-14-11-15-7-11-8-16-9-20-10-26-6-21-3-21-2-28-1-7v-24l3-11 2-15 2-8 3-14 6-22 3-8h3v2l8 1 4 1 22 1 24-2 18-3h10v-2l12-2 15-5h3v-2l7-1v-2l8-2v-2l9-4z" fill="#A71B1B"/>
<path transform="translate(716,1242)" d="m0 0h37l13 4 20 9h3v2l4 2 8 8 9 14 12 25 7 3 5 1v2l4 2 10 19v2h2l7 17v3h2l7 21 10 44 1 3v12l-7 9-6 6h-2l-1 3-5-25-5-21-7-21-6-15-4-9-6-11-8-8v-2l-6-2-3-2v-2l-8-2-12-5-15-4-21-2-27 2-18 4-14 6-14 9-11 10h-2l-2 4-8 14-8 20-6 18-2 7-4 20-3 21-2 3h-3l-8-16-9-19-8-21-1-5v-13l2-16 5-25 7-27 9-26 7-14 7-9 7-7 15-10 14-5 4-1 20-2 3-1z" fill="#C9CCCE"/>
<path transform="translate(518,613)" d="m0 0 10 1h23l16 7 10 9 6 10 5 15 3 16v20l-3 15-5 17-5 11-6 12-7 11-9 12-11 13-11 10-17 10-14 4h-14l-15-5-10-7-9-10-7-14-3-12-3-24v-22l3-25 5-22 5-13 6-10 9-12 10-9 9-6 8-1z" fill="#F7D898"/>
<path transform="translate(575,290)" d="m0 0h18l10 3 10 6 11 11 9 14 7 17 6 24 2 13v35l-5 25-6 21h-2v2l-4 3-7 2-10 5-5 8-20 8-1-5 2-9v-18l-3-21-6-20-3-4-3-7-7-8-5-3h-6l-2 4-3 9v25l5 24 4 9 2 8 8 14 7 6-4 3-9 5-22 5-26 1-29 1-8 1-6-5v-5l10-3 5-1v-2l8-7 7-14 6-18 1-11 1-1 3-31 1-29 2-16h2l1-10 6-20 8-16 2-3h2l2-5 7-7 5-2v-2l14-7z" fill="#FBFBF9"/>
<path transform="translate(348,1182)" d="m0 0h14l10 4 13 11 6 8 8 15 6 17 6 26 4 32v35l-13 3-28 4-11 1h-47l-26-4-23-5v-2l-8-1v-2l-10-3-1-3-8-4v-2h-2l-7-8 1-7 4-9 7-12 14-18 14-15 7-8 10-10 11-9 15-12 22-15 7-4h3v-2z" fill="#C21E1E"/>
<path transform="translate(440,1135)" d="m0 0 1 2-14 1-18 8h14l2-1 10 2 18 6 11 2 7 7 9 15 5 12 4 14 2 13 5 35 1 20 1 2v36l-18 6-49 13-12 3h-3l-2-36-4-32-6-26-6-17-9-17-8-9-11-8-8-3h-16v2l-5 2 2-4 5-6 16-10 23-13 22-11 17-7z" fill="#C9CCCE"/>
<path transform="translate(338,399)" d="m0 0 8 2 11 8 5 5v2h2v2h2v2l3 1v2l4 2 1 3 4 2 18 21v3l4 2 3 3 4 16 3 5v-8l3 4 2 8 3 5 6 2 4 6 2 13 7-1v6h2l5 8v2l4 1 7 4h20l8-4 4-6-1-10 4-1 39-2 16-2 19-5 10-3 3-1v-2l6-2 7 1 1-3 19-9 13-4 3-2 13-1 5 2v2l-7 4-1 2h-2l-2 4h-2l-1 3-5 3-4 5h-2l-2 4-8 8-9 5-11 4-12 3-14 3-9 3-23 8-9 5-8 3-13 7-7 4-13 5-25 5-17 3-9 1-6 2h-9l-10-2-1-1h-8l-6 1-1 2-1-3-4-1-7-11-2-8 5-5h12l-4-6-8-9-7-10-13-21-11-23-9-24-6-22-2-10v-13l3-5z" fill="#F7D797"/>
<path transform="translate(647,555)" d="m0 0 10 1 12 3h9l7 3 6 1 3-1v-5l4 4 4 6 1 3h2v2l4 2 13 13 11 9 3 2v2l5 2v2l4 2 8 8 2 5h2l8 11 2 5-13 13-1 2h-2l-1 3-4-1-14-11-25-20-7-4 1 5 1 14v18l-1 23-2 10-5-2-12-9-5-5-10-8-11-10-14-10v-2l-6-2-7-1-2-1-3-6-7-4-13-3h-16l-7-2-4 2-1 3-4-1-9-6-12-5-8-2-4-4 6-2 21-5 16-6 19-10 13-10 16-16 3 1-1 4 7-4 5-5z" fill="#06165F"/>
<path transform="translate(465,1155)" d="m0 0 6 1 19 9 15 5v2h7l5 1v2l13 1h22l17-6 16-12 5 13 3 15 3 19v12l-1 5-1 17-4 15-7 9-11 8-28 15-15 8-19 9-10 4-1-1-2-33-1-2-1-20-5-35-3-17-5-15-8-16-7-9z" fill="#820D0D"/>
<path transform="translate(500,834)" d="m0 0 12 2 16 4 3 4 7 19 18 52 10 29 4 16 4 9 3 9 28 88 1 7 5 12 2 9 3 7 3 8v5l-10 3-8 4-3 3h-3v-5h-2l-4-14v-5l5-6 1-2h2v-13l-5-13-7-9-11-7-16-6-16-3-10-1-3-9-5-22-4-21-4-27-2-9-5-44-3-24-3-17-3-22z" fill="#F9F9F7"/>
<path transform="translate(761,1216)" d="m0 0 4 1 14 21 9 15v3l-9-3-18-8-8-2h-37l-11 1-10 2-13 1-11 3-10 5-14 10-7 7-8 13-8 21-6 20-7 28-3 16-2 16v13l4 14 11 25 9 19 1 3 3-1 2-8 1-8h1v19l7 11 12 14 9 10 8 7 4 3v2l5 2 6 4v2l5 2 12 5v2l4 1 15 4 8 3 19 3h21l20-1 1-1 25-4 11-3 9-4 9-6 7-10 4-12 2-20 1-3 1-12h1l1 23-2 28-3 14-6 10-8 7-10 5-14 3-37 4-19 1h-24l-21-3-21-7-13-7-12-9-10-9-13-14-11-15-7-11-8-16-9-20-10-26-6-21-3-21-2-28-1-7v-24l3-11 2-15 2-8 3-14 6-22 3-8h3v2l8 1 4 1 22 1 24-2 18-3h10v-2l12-2 15-5h3v-2l7-1v-2l8-2v-2l9-4z" fill="#94979E"/>
<path transform="translate(438,667)" d="m0 0 4 1-3 3-9 2v2l-4 2 2 5 7 11v3l3 1v29l4 39 2 12 1 12v19l-4 5h5v10l2 13 2 31 5 54 1 14h-2l-2 6-7 12-11 12-11 9-13 8-14 6-17 4-5 1h-16l-2-2 5-3 8-3 10-6 4-2 2-4 4-2 1-4 5-5 3-5 2-4h2l1-9 5-12 2-5 2-11 2-3 2-11 3-9 2-10v-12l-1-3-11-4v-1h17l8-3 4-3 2-4v-7l-3-9v-5l-13-2v-2l8-6 2-4h-12l-21 2h-27v-1l7-1 17-1 22-4 14-7 4-6-1-11-3-1v-2l-8-1-4-1-16 1 2-4v-9l-3-14-4-8-1-7-2-2-3-10-4-9-5-10-3-9v-9l3-6 9-5 10-4 16-5 10-5 5-1z" fill="#7F7D84"/>
<path transform="translate(475,648)" d="m0 0h15l20 4 12 3 15 6 10 8 6 9v14l-3 11-8 20-7 10-9 10-17 9-13 8-6 5-14 3-7-1-6-3-7-8-6-13-3-7-2-7-1 3h-1v-31l4-24 4-15 3-8 3-2h8l6-3z" fill="#FEE9AF"/>
<path transform="translate(625,76)" d="m0 0h3l8 30 10 40 5 27 2 26-1 21-3 7-5 6-4 2h-9l-21-5-24-9-16-7-9-7-3-4-1-13 2-11 9-22 11-20 3-4 2-5 5-5 3-7 5-6 5-5 3-6 11-13z" fill="#B97D42"/>
<path transform="translate(348,1182)" d="m0 0h14l10 4 13 11 6 8 8 15 3 8-1 3-4-9v-3l-4-1-4-3v-2h-6l-1 3-8-1-1-1-16-1-4-2v-2h-3v-2l-6-1v2h-4l-1 2h-2v2l-4-2-3-2 3-4-7 3-3 1v2l-5 2-2 2h-3v2l-18 12h-2v2h-2l-2 4h-2l-1 3h-2l-1 3h-2l-2 4h-2v2l-8 7-4 4h-2l-1 4-3 2-1 3h-2l-1 5h-2l-1 4-3 5-6 13-1 5h-2l3 8 5 5 5 4 7 4 9 2 8 2 3-1v-3h3l1-3 7-2 10-3 8-4 10-4 15-8 1-2h3l1-3 5-3 2-2 2 1v-2l7-2 4-4 16-7 5-1 12-7 9-3 6 1-1-15 2 3 4 21 3 25v35l-13 3-28 4-11 1h-47l-26-4-23-5v-2l-8-1v-2l-10-3-1-3-8-4v-2h-2l-7-8 1-7 4-9 7-12 14-18 14-15 7-8 10-10 11-9 15-12 22-15 7-4h3v-2z" fill="#9A2724"/>
<path transform="translate(575,290)" d="m0 0h18l10 3 10 6 11 11 9 14 7 17 6 24 2 13v35l-5 25-6 21h-2v2l-4 3-7 2-10 5-5 8-20 8-1-5 2-9v-18l-3-21-1-8 3 3h3l3-10 5-5h2l2-4 7-8 5-9 2-9v-18l-2-12-4-9-6-8-3-3v-2h-2l-7-10-2-1v-2l-5-2-7-3h-18l-6 1-1 2-4 2-1 2-6 3-4 5-1 2h-2l-1 15-3 9-3 10h-2v-2h-2l-2-2-3 1-1 2 1-10 6-20 8-16 2-3h2l2-5 7-7 5-2v-2l14-7z" fill="#C9CCCE"/>
<path transform="translate(596,1214)" d="m0 0h1l3 9 6 10-2 4v25l-3 11-6 12-7 7-14 9-16 8-31 12-31 10-30 8-35 9-24 5-27 4-10 1-31 1-25-2-23-5-16-5-12-5-11-6-11-8-10-10-1-6 3 1 3 5 9 4 4 3v2h2l5 5 12 5 9 3 13 1 9 4 4-2 8-1 2 4 3-1 8-1 5 2 24-3 3 1v-2l3 1 13-3 10-1 2-1-16 1-11 1h-39l-21-3-21-5-3-2 9 1 25 5 9 1h47l33-4 19-3v-21h1v22l68-18 12-4h2v-22h1l1 19 23-10 16-8 24-13 15-9 7-6 4-6 4-15 1-17z" fill="#93959C"/>
<path transform="translate(454,634)" d="m0 0h3l-2 5-6 10-6 17-9 4-4 1-15 6-14 4-12 6-3 1-2 6v9l4 10 6 12 4 11 2 6 1 4 4 11 2 6 2 9v9l-2 3h9v1l-33 6h-7l-13-2-2-1v-2h-2l1-4 3-6 9-3-5-12-13-38-3-12-1-8v-17l3-10 6-10 5-6 13-8 11-2v-2l12-2 4-2 44-9z" fill="#F8D898"/>
<path transform="translate(546,830)" d="m0 0 5 1 2 6 2 3v3h2l8 16 4 13 4 10 5 12 3 12 3 5 4 11 5 9 3 10 5 12 4 14 8 20 5 18 4 8 4 9 5 13 3 8 4 15 3 9 3 15 2 6-4 14-4 3-7-2-3-1v-3l-3-1-7-11-1-4-2-1-1-6h-3l-1-9-3-3v-7l-3-1-2-9-2-3-4-12v-8h-2l-2-12-3-10v-2l-2-1-2-9-2-2v-12h-2l-1-7-1-4-2-2-2-9-2-3v-6h-2l-4-10-7-21-1-4v-6l-3-1v-10h-3l-1-8v-2l-3-1v-7l-1-4-2-1-1-7-2-4-1-7-2-4v-9l-2-3 1-5z" fill="#2F40FB"/>
<path transform="translate(559,391)" d="m0 0 7 1 9 9 3 5 3 7 3 8 4 13 3 21v18l-2 9 1 4 14-6h3l1-2 6-8 12-6 9-3 1-2-1 6-2 5 1 1 12 2 2 1v4l-5 3-1 2h-2l-2 4-8 7-4 1v2l-4 1-2 4-5 8-1 3-4 1-5 5-9 8-9 4-5 3-15 3-27 9-12 7-13 5-15 7-17 6-11 3-7 2-12 1-7 1-23 2h-9l-12-2-7-3v2l-4-2-2-2v-3l7-2h8v2h7l5 1h7l6-2 9-1 24-4 21-5 13-5 11-7 10-5 8-3 5-3 23-8 17-5 6-1 15-4 12-5 8-6 7-8h2l2-4 4-4 3-1 5-6h2l1-3 4-3h3l-1-2-7-1-10 1-5 3-13 4-17 8-1 2h-7l-6 1v2l-5 3-27 7-16 2-43 2v2l-4-2-4-3 1-2 2 1 9-1 53-2 22-5 12-7-7-6-9-16-2-8-4-10-4-21v-25l4-10z" fill="#E2B77B"/>
<path transform="translate(221,230)" d="m0 0 12 2 26 8 21 9 19 10 10 7 11 9 7 10 1 4v18l-4 20-5 12-4 6-3 2h-10l-6-4-9-9-11-14v-3l-3-1-8-12-2-4-6-9-13-20-8-13-2-3v-3h-2l-4-8-7-10z" fill="#D9A969"/>
<path transform="translate(657,489)" d="m0 0h1l1 11-2 13-5 15-8 16-8 11-4 5-8 7-6 7-14 11-16 9-16 7-13 4-19 4 5 5-7 1h-10l-10-1-29 1-2-1h-15l-14-2-5-2-16-4-15-6-3-3 16 1 19 3 5 1h17l13-1 12-2 17-5 12-4h6v-2l6-4-1-6 4-4 9-6 24-11 5-3h3l1-3 6-4 3-3h2l1-3h3l1-4 5-5 3-4h2l1-4 4-11h2l1-5 4-4h7l-3 2-5 5-5 12-3 9-12 16-11 10-14 8-24 10-3 3 21-7 10-5h2v-2l6-3 11-9 7-8 8-10 6-5 10-5 8-8 5-7 1-4h2l1-3 6 1z" fill="#B87D42"/>
<path transform="translate(627,637)" d="m0 0h7l8 4v2l5 2 13 11 10 9 12 9v2l4 2 11 8 2 1 1-2 1 5 2 1v2l5 2 8 6 5-1 9-6 6-1 4 20 6 15 8 14 2 5-12 1h-17l-16-4-13-7-13-10-13-12-2-1-2 3-3-9-17-17-8-7-3-3v-2l-4-2-7-8-5-11v-13l3-5z" fill="#E9C284"/>
<path transform="translate(646,594)" d="m0 0h15l12 3 15 8 9 8 1 2 5 1-3 1 1 5 1 14v18l-1 23-2 10-5-2-12-9-5-5-10-8-11-10-14-10v-2l-6-2-7-1-2-1-3-6-7-4-13-3h-16l-7-2-4 2-1 3-4-1-9-6-12-5-8-2-1-2 12-3h15l21 5 10 2 8 4-2-7 2-4 9-2 24-10z" fill="#05165F"/>
<path transform="translate(465,1155)" d="m0 0 6 1 19 9 15 5v2h7l5 1v2l13 1h22l17-6 16-12 5 13 3 15 3 19v12l-1 5-1 17-4 15-7 9-11 8-28 15-15 8-19 9-10 4-1-1-2-33-1-2-1-29h1l3 24v3h3v-2l9-3 7-2v2h2v-2h3l1-3 1 3h2l-1-3 7 2 1-9 2-3 4 1 6 1h3l1-3 6-3 4-5 7-3 3-10 2-5 2-20 1-3v-7l-3-9v-7l-7 2h-39l-20-4-18-6-12-5 1 9-4-5-6-8z" fill="#661012"/>
<path transform="translate(761,1216)" d="m0 0 4 1 14 21 9 15v3l-9-3-18-8-8-2h-37l-11 1-10 2-13 1-11 3-10 5-14 10-7 7-8 13-8 21-6 20-7 28-3 16-1 11h-2l-1 3-2-11-3-26-1-3-1-26 3-26 2-8 3-14 6-22 3-8h3v2l8 1 4 1 22 1 24-2 18-3h10v-2l12-2 15-5h3v-2l7-1v-2l8-2v-2l9-4z" fill="#681416"/>
<path transform="translate(518,364)" d="m0 0h2v8l-2 20-1 13h2l1-3 6-2 1 1v10l-3 3-2-1v3l3-1 2 1 3 12 2 3 9 5 4 4v2h2v2l4-2-1-9v-27h1l1 24 5 24 4 9 2 8 8 14 7 6-4 3-9 5-22 5-26 1-29 1-8 1-6-5v-5l10-3 5-1v-2l8-7 7-14 6-18 1-11 1-1 3-31 1-29z" fill="#C9CCCE"/>
<path transform="translate(810,1337)" d="m0 0 4 1 6 3 7 8 6 9 4 8 6 15 7 19 6 22 5 28 2 4v19l-1 3-2 20-4 12-8 11-10 7-14 5-10 2h-9v-1l12-3h3l2-4 3-4 1-12v-29l1-30 1-12v-22l-2-26-6-36-3-9-5-6z" fill="#671113"/>
<path transform="translate(838,535)" d="m0 0h27l26 3 12 3 13 7 6 7 2 5-1 12-6 8-5 3h-9l-21-5-18-4h-12l-18 4-12 4-7 2-8 1-4-4-2-13v-8l6-10 11-9 10-4z" fill="#FCFCFA"/>
<path transform="translate(623,98)" d="m0 0h4v3h2l1 7 3 9 2 15 3 16 4 14 4 13 4 20 1 29-6 8-5 3h-9l-21-5-24-9-3-3 3-3 1-7 3-1v-3h2l2-6h2l2-5h2l2-5 3-1 2-5 4-7h2l2-4 5-13 3-11v-8l-3-3-4-10 2-18z" fill="#DAA969"/>
<path transform="translate(830,487)" d="m0 0h9l21 3 17 7 13 4 13 7 7 4v2l4 1v2l5 2 6 6 3 9 1 10-2 2-5-1-10-5-8-3v-7l-10-5-10-3-20-2-16 2-24 6-9 4-13 7-7 4-5-1-1-2v-16l3-10h2l2-5 6-8h2l1-3 10-7z" fill="#FCFCFA"/>
<path transform="translate(329,450)" d="m0 0 4 1 4 6h2v3l4-1 10 25 11 21 9 14 9 12 9 11v2l-14 2-2 5 4 9 6 9 9 10 7 7 14 9 14 7 3 2-2 5-5 4-5 1-2 5-3 3-2 6v7l3 5 3 2-9 2h-6l-6-10-8-16-11-23-19-48-11-27-11-31-5-12v-8l-2-3-1-12z" fill="#162CB3"/>
<path transform="translate(347,406)" d="m0 0 6 2 8 5 1 3h2v2h2v2l3 1v2l4 2 1 3 4 2 18 21v3l4 2 3 3 4 16 4 15 6 13 5 8 1 2-4-1-2 1v-2l-5-1-8-4-14-3-9-8-7-10-2-4-4-1-5-4-2-3-8-1-4 1-7-19-3-16 1-5 1-16 5-10z" fill="#FAFBF9"/>
<path transform="translate(871,324)" d="m0 0 4 5 8 15 3 7 8 19 3 6 7 25 6 23 2 15 6 34v6l-20-9-11-5-5-2-8-44-4-43v-29z" fill="#192EB1"/>
<path transform="translate(338,399)" d="m0 0 8 2 11 8 1 2-5-2-6-2-5 10-1 16-1 7 4 16 5 14v3l6-2 7 2 5 5 5 3 9 12 9 9 16 4 8 4 8 2-4-5-6-12-4-11v-5l2 1v-8l3 4 2 8 3 5 6 2 4 6 2 13 7-1v6h2l5 8v2l3 1h-3v2l-6 1v3l-9 5-10 4-6 1-1 3-5 1-31 1 3-3h12l-4-6-8-9-7-10-13-21-11-23-9-24-6-22-2-10v-13l3-5z" fill="#C9CCCE"/>
<path transform="translate(518,613)" d="m0 0 10 1h23l16 7 10 9 6 10 5 15 3 16v20l-2 1-3 8-5 1-2-3-2-23-4-8-3-7-5-5-5-3-7-2-11-3-3-2-19-3-8-2-9-1h-18l-22 4-3 2 2-4 8-11 10-9 9-6 8-1z" fill="#ECC585"/>
<path transform="translate(596,1214)" d="m0 0h1l3 9 6 10-2 4v25l-3 11-6 12-7 7-14 9-16 8-31 12-31 10-30 8h-6l3-2 14-4h3v-2l4-4 1-5 1-3-6-2 4-4 12-4h2v-22h1l1 19 23-10 16-8 24-13 15-9 7-6 4-6 4-15 1-17z" fill="#7E7C83"/>
<path transform="translate(406,1246)" d="m0 0 2 3 4 21 3 25v35l-13 3-28 4-11 1h-47l-9-1-2-2 40 1 12-1 10-2 7-1 10-2 8-1 6-2 6-1 3-2-1-16v-12l-7 2-14 6-10 4-12 3-22 2h-11l-18 1-13 4-8 4-9 2h-4v-2h2v-3h3l1-3 7-2 10-3 8-4 10-4 15-8 1-2h3l1-3 5-3 2-2 2 1v-2l7-2 4-4 16-7 5-1 12-7 9-3 6 1z" fill="#A71B1B"/>
<path transform="translate(576,283)" d="m0 0h15l5 2 3 2 1 4h-25l-13 4-7 4h-2v2l-8 6-5 6-1 2h-2l-2 5-8 16-6 22-1 6h-2l-1 16-1 29-3 31-1 1-1 11-8 23-6 10-6 6h-2v2l-10 4h-5v5l3 1 3 5 6 4 2 5-1 5-5 6-7 3h-20l-8-5-3-1-5-8v-2h-2v-6l-3 2-5-1-2-13-4-6-6-2-4-7-2-8v7l-4-3-3-9v-8l5 4 12 12 11 7 4 3 3 9 1-6h24l-1-8 8 3 5 1 7-3h3l1-3h3v-2l6-5 4-6 4-10 4-17 3-19 2-4-1-4v-11l1-7 2-28 2-13 8-26 8-16 10-10 8-7 5-5 6-2 7-3 2 1v-2z" fill="#070E3B"/>
<path transform="translate(753,360)" d="m0 0 6 2 8 4 5 6 6 4 5 1-1 3 6 1v2l7 2 6 4 11 2 2 6 4 27 1 14-11-3-20-6-21-6-7-3-12-25-6-20v-13z" fill="#05165F"/>
<path transform="translate(713,1194)" d="m0 0h13l1 3-1 7 5 5v5l-8 7-17 7-10 3-25 5h-24l-21-3-10-3-5-3-9-6-2-5v-3l6-2 34 1h20l21-3v-4l-17-3-1-2 2-1 35-3z" fill="#FCFCFA"/>
<path transform="translate(648,1431)" d="m0 0 1 2 5 1 2 5 5 1 4 6 12 16v2h2l6 8 10 12 10 10v2l4 2 3 3v2l4 2 3 2v2l5 2 6 7 3 3 1 8 4 3 7 2 13 1h25l10 1v1l-20 1h-21l-19-3-4-1-3-4-16-6-17-9-14-10-13-10-9-11-3-3-2-6-3-1-8-10-2-8 4-15 1-7h2v-2z" fill="#9A2724"/>
<path transform="translate(815,445)" d="m0 0h17l22 11 10 6v2l4 2 3 2v2l2 1-1 3h-18l-13 1-24 6-13 5-14 11-9 6-10 1-3-3-2-5-1-7-3-2 2-7 6-7 5-4 9-9 9-5 14-7z" fill="#FBFBF9"/>
<path transform="translate(632,574)" d="m0 0h8l11 1 9 1v2l10 1v2l16 2 7 11 4 12 5 2 2 5 3 1 3 4 7 3 8 9 3 5 6 5h-3l-18-14-10-8v-2h-5l-7-8-16-9-8-3-6-1h-15l-15 6-7 3-10 4-6 1-1 4 1 6-5-1-5-3-12-2-17-4h-17l-6 2-7-1 1-2 26-6 16-6 19-10 11-8h1v5l9-4 4-2 5-2z" fill="#030B38"/>
<path transform="translate(423,678)" d="m0 0 4 2 8 13v3l3 1v29l3 28v7l-22 1-9-21-4-9-4-7-5-13-4-10-2-7v-4h3v-2l21-8z" fill="#F8F8F7"/>
<path transform="translate(221,230)" d="m0 0 12 2 26 8 21 9 19 10 10 7 11 9 7 10 1 4v18h-1l-1-14-11-4-11-7-3-1v-2l-7-1-4-4-14-9-6-4-7-6v-2h-4v-2l-5-2-5-3h-6l3 8 2 5 3 3 10 15 1 4h2l12 20 7 11 4 7 7 11 3 6 2 5v3l13 2v1h-10l-6-4-9-9-11-14v-3l-3-1-8-12-2-4-6-9-13-20-8-13-2-3v-3h-2l-4-8-7-10z" fill="#C38C48"/>
<path transform="translate(624,91)" d="m0 0 3 1v3h2l4 11 5 19 8 32 2 6 4 25 1 19-1 13-2 2-1-27-6-28-3-7-4-17-4-26-3-9v-7h-2l-1-2h-2l-5 9-2 18 5 11 2 2v8l-5 17-4 8-5 6-5 9-4 4-4 5-1 2h-2l-2 6h-2v3l-2 1-1 7-4 4-6-2-10-5-7-6v-4l5 1h10l5-1v-3h2l2-6h2l2-4 2-3 2-7 2-3 2-6 2-10v-13l-1-8 2-7 1-6h2l1-6 4-6v-2h2l2-6 4-4 5-8 4-1z" fill="#C68E47"/>
<path transform="translate(348,1182)" d="m0 0h14l10 4 13 11 6 8 8 15 3 8-1 3-4-9v-3l-4-1-4-3v-2h-6l-1 3-8-1-1-1-16-1-4-2v-2h-3v-2l-6-1v2h-4l-1 2h-2v2l-4-2-3-2 3-4-7 3-3 1v2l-5 2-2 2h-3v2l-18 12h-2v2h-2l-2 4h-2l-1 3h-2l-1 3h-2l-2 4h-2v2l-8 7-4 4h-2l-1 4-3 2-1 3h-2l-1 5h-2l-1 4-3 5-6 13-1 5h-2l3 8 5 5 5 4 7 4 9 2 8 2-3 2-11-1-16-8-4-3v-2l-5-2-4-7h-1v-6l6-14 10-14 9-11 12-13 9-10 9-9 11-9 15-12 22-15 7-4h3v-2z" fill="#A61C1C"/>
<path transform="translate(700,617)" d="m0 0 4 1 28 22 16 13-2 5-6 10-4 11-1 13-5 3-11 7-4-1-10-7-2-1v-2l-3-1v-13l1-23v-18z" fill="#F9F9F7"/>
<path transform="translate(428,780)" d="m0 0h7l4 1v4h2l1 4-1 11-6 8-5 3h-2v3l-7 2h17v5l-4 4-1 3 9 1 2 5 1 7v11l-5 8-4 3-11 3 5 4 2 16-1 10-4 20-2 8-2 11-4 12-8 19-8 11-4 3h-2l-1 3-5 1v3l-8 3h-4v2l-5 1h-16l-2-2 5-3 8-3 10-6 4-2 2-4 4-2 1-4 5-5 3-5 2-4h2l1-9 5-12 2-5 2-11 2-3 2-11 3-9 2-10v-12l-1-3-11-4v-1h17l8-3 4-3 2-4v-7l-3-9v-5l-13-2v-2l8-6 2-4h-12l-21 2h-27v-1l7-1 17-1 22-4 14-7 4-6-1-11-3-1v-2l-8-1-3-3z" fill="#8D8F92"/>
<path transform="translate(212,221)" d="m0 0 2 4h4l2 2 25 7 20 7 15 6 20 11 11 7h2v2h2v2h2v2h2v2l3 1v2h2l6 12v19l-4 21-3 9-6 27-5 10v4l-4-2-7-8-10-10-10-13-11-15-11-16-10-16-8-13-14-24-13-24-3-7v-8zm9 9 1 5 6 9 4 8h2l1 5 6 9 14 22 10 15 4 7 5 7h2l1 4 8 10 9 10 6 5 2 1h10l5-4 6-13 4-16 1-7v-18l-3-7-8-10-13-10-16-9-19-9-25-9-20-5z" fill="#172CB3"/>
<path transform="translate(740,1141)" d="m0 0 6 1-1 4-10 7-12 8-9 5-11 6-11 4-15 2h-22l-22-2-12-3-12-5-6-5-1-5 2-2 15-1 3 1 14 2h22l19-2 15-3 15-4 20-5 9-2z" fill="#FCFCFA"/>
<path transform="translate(636,474)" d="m0 0 7 1 1 3-7 4-1 2h-2l-2 4h-2l-1 3-5 3-4 5h-2l-2 4-8 8-9 5-11 4-12 3-14 3-9 3-23 8-9 5-8 3-13 7-7 4-13 5-25 5-17 3-9 1-6 2h-9l-10-2-1-1h-8l-6 1-1 2-1-3-4-1-4-6v-2h2v-3l5 2 10 3 16 2 14-1 14-2 12-4 10-4 17-8 18-6 13-4 17-6 7-3 11-4 12-3 10-3 7-1 9-3 7-2h4v-2l9-2 11-8 7-6h2l2-4 5-5v-4l-10 2-19 8-9 4h-2l1-3 19-9 13-4 3-2z" fill="#EEC584"/>
<path transform="translate(446,653)" d="m0 0 1 2-4 11-9 4-4 1-15 6-14 4-12 6-3 1-2 6v9l4 10 6 12 4 11 2 6 1 4 4 11 2 6 2 9v9l-2 3h9v1l-33 6h-7l-13-2-2-1v-2h-2l1-4 3-6 10-4 3 2h6l6-5h2l2-5v-10l-2-6-3-10-8-18-4-15-1-14v-3l5-3 4-4 5-3 8-2 11-3 14-6 10-5 5-3 8-2z" fill="#EDC483"/>
<path transform="translate(687,620)" d="m0 0 5 1 2 5v3l6 1v-8h1l1 14v18l-1 23-2 10-5-2-12-9-5-5-10-8-11-10-14-10v-2l-2-1 5-4 8 1 16-7 3-2 5-1 4-5z" fill="#162CB1"/>
<path transform="translate(391,1199)" d="m0 0 5 1 10 4 1 2 4-1 18-1 7 2 2 2 1 6-2 12-5 9-8 15-3 1-1 20 1 14v18l-1 23v2h-2l-2-9-4-42-3-19-5-21-6-17-9-17v-3z" fill="#CACCCE"/>
<path transform="translate(626,640)" d="m0 0h9l8 6 5 3h3l4 7 3 3v2l2 1 3 4 7 4 4 3v2h2v2h2v2h2v2h2l5 5 15 14 5 4-2 4-6 7-1 4-3 2h-5l-11-9-4-4v-2l-4-2v-2l-3-1-4-4v-2l-3-1-7-9-4-5-5-5-7-9-1-3h-2l-2-6h-2l-4-6-3-6 1-4z" fill="#FFEAAF"/>
<path transform="translate(306,874)" d="m0 0 8 1 11 7 3 3v2l5 2 8-1 1 5-4 43-4 3h-13l-6-2h-20l-3-1 1-5 3-7 1-9 2-1 9 4 6-2 4-2 3-6-1-6-10-3-4-1-13 4-6 2 5-5 11-7v-9h-5v2l-5 5-2 1 2-5 8-9z" fill="#CACDCF"/>
<path transform="translate(810,1337)" d="m0 0 4 1 6 3 5 7 2 5 5 10v12l3 20 4 29 2 38v35l-2 14-1 8-6 7-12 5-6 2h-9v-1l12-3h3l2-4 3-4 1-12v-29l1-30 1-12v-22l-2-26-6-36-3-9-5-6z" fill="#810D0D"/>
<path transform="translate(411,654)" d="m0 0 9 1 1 4-7 5-8 3-20 4-8 5-10 9-1 5v16l4 15 6 18 1 5v12l-4 2-5-5-4-6-2-7-4-15-5-14-1-6-1-16v12l2 13v5l-2-4-2-12v-17l3-10 6-10 5-6 2 1v1l11-3 7-2 13-1z" fill="#FEE9AE"/>
<path transform="translate(447,836)" d="m0 0h1l2 31 5 54 1 14h-2l-2 6-7 12-11 12-11 9-13 8-11 5-4-1 9-5 6-7 8-7h2l1-4 5-7 3-12 3-9 4-21 1-11 3-12v-14l-3-7-6-4 3-2 8-4 3-2 1-3z" fill="#6B646D"/>
<path transform="translate(638,1248)" d="m0 0h29v2l2 1-8 4-14 10-7 7-8 13-8 21-1-2h-2v2h-3l-2 3h-2v2h-2l-2 7-1-3-3-1v-11l1-7-1-21 4-13 6-8 4-4 3-1h11z" fill="#820D0D"/>
<path transform="translate(596,1214)" d="m0 0h1l3 9 6 10-2 4v25l-3 11-6 12-7 7-14 9-16 8-31 12-31 10-9 1 2-2 3-1 5-5v-9l1-2h2l2-4h4l-1 4-2 4v4h7l18-6 3-5 4 1 7-3 12-6-2-3 1-4h5l1 3h3v-3l4-1 5-2v-5l4-2 4-1 1-6 1-5 2-2 3-11 2-4 4-12 1-5 1-17z" fill="#6C666F"/>
<path transform="translate(620,508)" d="m0 0 1 2-1 3h-2l-2 9-3 6-5 5-3 4h-2l-1 4-3 1-5 5-5 4-3 3-17 8-16 8-9 6h-2l1 8-5 4h-2v2l-8 2-21 6-12 3-19 2h-20l-8-2-24-3-9-2-11-7-1-2h8l1 3 5-1 10 3 5 1v2l2-1h19l24-2 16-3 13-4 15-5 7-2 5-2h3v-2l8-5h3v-2l8-4 8-5 11-5 8-4h2v-2l3-2h3v-2l5-4h2v-2l8-7 5-6h2l2-5 5-10z" fill="#C68E47"/>
<path transform="translate(518,613)" d="m0 0 10 1h23l16 7 10 9 6 10-1 7-9-3-6-5-3-1v-2l-19-2-20-2-16-2-10-1-16 2h-13l5-6 14-10 8-1z" fill="#D7A869"/>
<path transform="translate(559,391)" d="m0 0 7 1 9 9 3 5 3 9-1 3-4-6-7-7-4 1-2 1-1 3h7l6 8 4 9 3 11 1 7v21l-3 3-7 1-2-1v-14l-3-6h-5l-1 1v10l4 7 1 7-3-3-7-14-4-16-2-11v-25l4-10z" fill="#060E3B"/>
<path transform="translate(485,828)" d="m0 0 7 1 5 1v2h2l7 49 2 12 6 48 2 17 3 16 5 30 5 23 3 14 1 1 3 20 3 13v3l-15 5-8 2h-8l4-5 7-2 1-5 3-7 3-9v-17l-2-6-1-13-2-6-2-14h-1l-1-13-3-16v-6l-3-8v-18l-3-8-1-15-1-1v-5h-2l-1-5-1-14-3-13-1-6-3-7v-4h-2l-2-9-3-9-2-12z" fill="#0B1B61"/>
<path transform="translate(623,553)" d="m0 0h5l1 5 5-2-2 4-8 7-6 7-14 11-16 9-16 7-13 4-19 4 5 5-7 1h-10l-10-1-29 1-2-1h-15l-14-2-5-2 4-1 16 2h17l23-2 1-2 17-4 14-7 24-8 7-3 5-2 2 1v-2l8-5 9-5 5-4h2v-2l4-1 1-3h3l1-3h2v-2h2l1-3z" fill="#BD1E1D"/>
<path transform="translate(718,509)" d="m0 0h12l13 3v3h2l2 5 1 5-1 13-3 6-7 7-8 4-7 1-9-2-4-5-2-6v-7l5-10-1-3-8 3-1 1h-5l3-5 11-11z" fill="#FBFBF9"/>
<path transform="translate(860,1365)" d="m0 0 3 1 6 22 7 32 1 3v12l-7 9-6 6h-2l-1 3-5-25-5-21-7-21-4-11v-2l20-5z" fill="#BA7F44"/>
<path transform="translate(745,379)" d="m0 0 8 1 3 3v2l5 2 5 4 3 5 2 1v2h2l1 2 30 15 3 3 9 1 2 4 1 14-11-3-20-6-21-6-7-3-12-25-3-10z" fill="#040C3A"/>
<path transform="translate(597,1311)" d="m0 0 1 4v11l1 18 2 13 3 24h2v18l4 14 9 21 3 13h2l8 22 2 1 2 5 3 3v3h2v3l4 2 9 9v2l4 1 3 4v2h2l3 6 2 1v3l4 1v2h2l3 6 8 7-1 5 7 1 4 1 2-1 2 1v2l5 3 3 4 9 3 7 2 9 1h40l8-1 2 1h16v-2l7-1h9l5 1-4 2-30 3-19 1h-24l-21-3-21-7-13-7-12-9-10-9-13-14-11-15-7-11-8-16-9-20-10-26-6-21-3-21-2-28-1-7v-24z" fill="#8C8E91"/>
<path transform="translate(431,604)" d="m0 0 9 2 13 3 5 2 14 2h15l2 1v2l-7 5-2-1 1-3-5 1-8 7-5 4-5 5-35 7h-7l-4-6v-7l3-7 5-7 8-4 2-2z" fill="#030B39"/>
<path transform="translate(627,637)" d="m0 0h7l8 4v2l5 2 3 4-3 1-12-9h-9l-2 2 1 9 10 13 6 8 9 10 9 11 5 5 7 8 10 10 5 4 5 5 12 6 9 2h13l13-1 7-5 3 3 6 11 2 5-12 1h-17l-16-4-13-7-13-10-13-12-2-1-2 3-3-9-17-17-8-7-3-3v-2l-4-2-7-8-5-11v-13l3-5z" fill="#D7A769"/>
<path transform="translate(620,656)" d="m0 0 2 2 7 14 8 7 1 7 1 6-4 8-1 4 2 1-3 6h-1v-9l-2 1-2 9-1 11h-2l1 6h-2l-1 2 1-10h-2l-3 9-2 14-4 1-2-3-2-9-1-2 2-25 1-4 1-20 4-19 3-6z" fill="#05165F"/>
<path transform="translate(623,197)" d="m0 0h11l5 5 2 5 4 2 2 12 1 2-3 9-5 3h-9l-21-5-12-5-2-3 3-4 1-6 8-8 10-5h5z" fill="#E8C182"/>
<path transform="translate(438,667)" d="m0 0 4 1-3 3-9 2v2l-12 6-19 7-5 1v2h-3l6 20 5 10 3 7 5 12 7 15 10 23-1 3-4 3-16 1 2-4v-9l-3-14-4-8-1-7-2-2-3-10-4-9-5-10-3-9v-9l3-6 9-5 10-4 16-5 10-5 5-1z" fill="#C78F47"/>
<path transform="translate(754,504)" d="m0 0h1l1 10 3 1v2l3 1 6 10 2 3 4 1-1 21 1 17-2 3h-2l-1 2-5-1-10 11-9 7-6 1-6-3-1-7 5-9 8-7 7-7 5-9 3-8 1-12-4-10-4-5z" fill="#8C8E91"/>
<path transform="translate(576,283)" d="m0 0h15l5 2 3 2 1 4h-25l-13 4-7 4h-2v2l-8 6-5 6-1 2h-2l-2 5-8 16-6 22-1 6h-2l-1 16-1 29-3 31-1 1-1 11-6 18-5 5-12 11-5 3-10 3-5-1-2 2-5 1-15-1-4-2 22-1-1-8 8 3 5 1 7-3h3l1-3h3v-2l6-5 4-6 4-10 4-17 3-19 2-4-1-4v-11l1-7 2-28 2-13 8-26 8-16 10-10 8-7 5-5 6-2 7-3 2 1v-2z" fill="#071762"/>
<path transform="translate(690,1103)" d="m0 0h42l15 2 2 2-9 7-8 8-11 7-14 6-9 3-3-1v-4l-1-5 4-15v-5l-10-1-1-3z" fill="#95989F"/>
<path transform="translate(606,1272)" d="m0 0 1 3 1 23-1 5v11l3 3 2-6h2v-2l5-4 2 1v-2h2l-1 8-8 29-3 13-3 16-1 11h-2l-1 3-2-11-3-26-1-3-1-26 3-26 2-8 2-10z" fill="#691315"/>
<path transform="translate(685,1515)" d="m0 0 6 2 5 3 10 4v2l4 1 15 4 8 3 19 3h21l20-1 1-1 21-2 7-1-1 3-16 8-11 4-14 3h-4l-1-6-5-3-16 1v3h10l1 6-5 1-9-1-8-3-8-1-5-2-5-1v-2h-5l-1-2-9-5-5-3-6-3v-2l-5-1-6-5z" fill="#C8CBCD"/>
<path transform="translate(466,1038)" d="m0 0 2 4 4 26-1 11 4 3 10 3h31l-4 2-9 1h-14l-17-1-12-5-8-5-3-3v-2l-3-1-4-7-2-5-7-3 5-6 14-7 14-3z" fill="#8C8E91"/>
<path transform="translate(480,1314)" d="m0 0 2 1-1 1 6 3-2 7-2 4-3 1v2l-17 5v2l-32 8-24 5h-4l2-5h6l8-2 19-4 5-3v-3l-21 1-5-2v-4l10-3 46-12z" fill="#8D8E92"/>
<path transform="translate(418,866)" d="m0 0 6 1 3 12v10l-4 21-3 15-4 13-5 15-10 19h-2l-2 5-10 7-11 5-2 4h-16l-2-2 5-3 8-3 10-6 4-2 2-4 4-2 1-4 5-5 3-5 2-4h2l1-9 5-12 2-5 2-11 2-3 2-11 3-9 2-10v-12l-1-3z" fill="#9699A0"/>
<path transform="translate(534,1042)" d="m0 0h12l17 4 12 5 11 8 3 5h-9l-13 5-10 4-8 4-17 5-4-1 11-3-4-16v-6l2 3 6-5v-7h-3v-2l-6-1z" fill="#95989F"/>
<path transform="translate(820,1308)" d="m0 0 9 1 5 1v2l4 2 10 19v2h2l7 17v3h2l3 10h-2v3l-4 2-14 3h-3l-4-11h3l1-4-8-24-9-22z" fill="#EDC482"/>
<path transform="translate(566,404)" d="m0 0 4 1 4 5 5 5h1l1-2 3 8 4 13 3 21v18l-2 9v5l-5 3-10-1-6-7-7-13 1-3 4 7-2-8-3-5v-10l2-2h5l4 7v11l-1 3 9-1 2-2v-21l-3-14-4-11-6-9-7-1 1-4z" fill="#6E6972"/>
<path transform="translate(623,98)" d="m0 0h4v3h2l1 7 3 9 2 15 3 16 1 4-4 5-2 4v2l-4-1-3 5-8 8-4 6-5 5-1 2h-2v2h-2v2h-2v3l-3 3h-2l-2 5-4 6h-2v2h-2l1-4h2v-3h2l2-6h2l2-5h2l2-5 3-1 2-5 4-7h2l2-4 5-13 3-11v-8l-3-3-4-10 2-18z" fill="#C59B6C"/>
<path transform="translate(321,301)" d="m0 0h5v18l-5 16-5 9-7 1-5-4-3-6-4-5-6-12v-10l10-4 15-1z" fill="#E1B67C"/>
<path transform="translate(655,483)" d="m0 0 2 3v15l-1 3h-6l-1 2h-2l-1 5-6 9-4 3h-2l-2 4-10 5-5 4-5 7h-2l-2 5-9 9-11 8h-3v2l-15 7-14 5h-4l1-3 14-6 16-7 11-7 11-10 11-16 6-18 5-6 2-1-5 1-3 2 2-4 5-4 12-2 3-1 2-5 2-3h2l1-2 4-1z" fill="#C68E47"/>
<path transform="translate(593,1083)" d="m0 0 3 2v7l-4 6-3 4v8l-3 1v2h-2l-2 5-10 7-10 4-12 2h-26l-10-1-1-2 31-1 17-5 10-5v-3l-10 1-13 2-12 1h-25l-8-1 4-2 26-2 17-4 10-3 15-7 10-6 1-2h3v-2l3-3z" fill="#93969C"/>
<path transform="translate(346,795)" d="m0 0h36l24 1 8 1 2 4-2 4-6 3-21 4-20 1-14-2-6-3-4-5v-6z" fill="#FCFCFA"/>
<path transform="translate(329,450)" d="m0 0 4 1 4 6h2v3l4-1 10 25 11 21 9 14 9 12v3l-10-3-15-20-3-1-5-5-1-3-2-1-6-12h-2l-5-12v-8l-2-3-1-12z" fill="#2E3FF9"/>
<path transform="translate(438,662)" d="m0 0h6l-2 5-8 3-4 1-15 6-14 4-12 6-3 1-2 6v9l4 10 6 12 4 11 2 6 1 4 4 11 2 6 2 9v9l-2 3h9v1l-33 6h-7l-13-2-2-1v-2h-2l1-4 3-6 10-4 6 14h13l5-2v-2h2v-2h2v-12l-2-12-8-23-5-12-5-14-2-10 2-7 7-6 17-7 13-4 8-5 8-4z" fill="#D6A76A"/>
<path transform="translate(230,1300)" d="m0 0 4 8 4 2v2h2v2l4 1 5 5 10 4v2h6l2 1v2l9 2 21 5 21 3h39l20-2h9l-4 3-13 2-11 2v-2h-2v2l-13 1-16 2-4-2-7 1h-3l-2-3-8 1-5 2-8-4-15-1-21-9-3-3v-2h-2l-5-5-9-4-3-5-2-1-1 4-2-5 1-7z" fill="#C7CACD"/>
<path transform="translate(551,767)" d="m0 0 5 1-4 6-11 12-10 8-14 8-14 4h-14l-15-5-10-7-9-10 3-1 1 3 6 2 7 4 3 1 1 2 2 1h10l16-5 14-4 4-1v-2l10-5 10-2 5-6 3-1z" fill="#E8C286"/>
<path transform="translate(587,543)" d="m0 0h3v2l-6 2v2l-26 13-8 5h-3v2l-8 4-3 1v2l-8 3-7 2-22 7-6 2-16 3-29 2h-16l-5-2-10-3-2 1-3-2 8-4h6l2 1 4-1 3 1 6-1 25 1 15-1 22-5 9-3 5-1 2 1v-2l6-1 10-3h3v-2l10-5 9-6 9-5 13-5 6-2v-2z" fill="#C59B6D"/>
<path transform="translate(626,640)" d="m0 0h9l8 6 5 3h3l4 7 3 3v2l2 1 3 4 7 4 4 3v2h2v2h2v2h2v2h2l5 5 15 14 5 4-2 4-6 7-1 4-3 2h-5l-11-9-4-4v-2l-4-2v-2l-3-1-4-4v-2l-3-1-7-9-4-5-5-5-7-9-1-3h-2l-2-6h-2l-4-6-3-6 1-4zm6 7 1 5 8 11 8 12h2l2 4 9 12h2l2 4 13 13 11 7 4-1 1-4h2l2-5-5-6-16-16h-2l-1-3-7-6-8-6-8-7-5-5-11-9z" fill="#F8D897"/>
<path transform="translate(547,157)" d="m0 0 1 3-9 14-5 4-14 12h-14l-8-3-4-5v-6l5-7 21-7 4-1 7 1 7 5h2l5-8z" fill="#162CB1"/>
<path transform="translate(515,1178)" d="m0 0 14 1h16l-2 4-15 8-15 6-11 5-9 3h-3v7h-1l-2-13-3-12 1-4 6-3h8l9-1z" fill="#A71B1B"/>
<path transform="translate(863,1461)" d="m0 0h1l1 23-2 28-3 14-6 10-8 7-10 5-10 1 1-6-1-5 3-7-1-2 11-5 9-6 7-10 4-12 2-20 1-3z" fill="#8A8B8F"/>
<path transform="translate(762,421)" d="m0 0 5 1 21 6 29 9 1 4-16 6-15 11-3-1-10-15-11-18z" fill="#F7F7F5"/>
<path transform="translate(273,223)" d="m0 0 10 1 49 12 23 5-2 1-2 4-13 8-4 1-12-2-10-5-4-4-6-3-1-2-9-5v-2l-5-1-7-4-7-3z" fill="#162CB3"/>
<path transform="translate(444,526)" d="m0 0 7 1 6 4 1 4h-2l-1 3-8 6-10 6-13 5h-3v2l-8 1h-16l-12-3-3-3v-3l23-1 12-3 16-8 5-3v-5l6-1z" fill="#FEE9AE"/>
<path transform="translate(774,686)" d="m0 0 4 1 13 10 8 4 14 10 8 4 18 6 5 2 1 5h-13l-15-3-15-6-10-7-12-7-4-4-1-3-2-1-1-9z" fill="#FCFCFA"/>
<path transform="translate(221,230)" d="m0 0 12 2 7 2v1l-10-1 3 5v2l3 1 9 16 7 10v2h2l4 7v2h2l4 8 9 16 12 22 7 10 7 8 4 2 9 1v1h-10l-6-4-9-9-11-14v-3l-3-1-8-12-2-4-6-9-13-20-8-13-2-3v-3h-2l-4-8-7-10z" fill="#AF7244"/>
<path transform="translate(309,876)" d="m0 0h6l10 6 3 3v2l5 2 8-1 1 5-3 30-2 10-2 2h-33l-2-2 8-6 10-3 7-4 1-2h2l2-5 3-6v-12l-1-3-3-1h-15l1-9-6-4z" fill="#94969D"/>
<path transform="translate(516,967)" d="m0 0 2 1 6 36 5 23 3 14 1 1 3 20 3 13v3l-15 5-8 2h-8l4-5 7-2 1-5 3-7 3-9v-17l-2-6-1-13-2-6-2-14h-1l-1-13-3-16z" fill="#091963"/>
<path transform="translate(444,1126)" d="m0 0 6 1 13 6 11 4 11 3 14 5 12 4v4l-10 3h-8l-16-3-11-5-12-7-9-7h-2v-6z" fill="#FCFCFA"/>
<path transform="translate(243,245)" d="m0 0h6l10 6v2h4v2l4 2 7 6 13 8 7 5v2l7 1v2l5 1 9 6 7 3v2h-8l-3-2-6-1v-2l-6-2-6-3-1-1-10-2-10-7-7-3-6-4h-2l1 6-4-4-4-6v-2l-3-1-5-12z" fill="#C59B6D"/>
<path transform="translate(499,628)" d="m0 0 21 2 13 2 22 2 9 2v2l5 1 6 5 6 2 1-3h2l4 12-1 3-3 3-8-3-3-6-5-5-13-5-17-3-17-2-2-1-19-2h-8l-7 1-10 1-5-3-2 1 1-3 9-1h8z" fill="#DFB57C"/>
<path transform="translate(635,459)" d="m0 0 1 3-3 8 1 1 12 2 2 2h-12l-10 1-5 3-13 4-17 8-1 2h-7l-6 1v2l-5 3-27 7-16 2-43 2v2l-4-2-4-3 1-2 2 1 9-1 53-2 22-5 12-7-1-2h8l12-6 8-3h3l1-2 6-8 12-6 9-3z" fill="#C49C6E"/>
<path transform="translate(518,613)" d="m0 0 10 1h23l16 7 8 7-3 2-5-2-30-4-15-1h-33l-7-2 5-5 10-2z" fill="#C48D48"/>
<path transform="translate(391,1199)" d="m0 0 5 1 10 4 1 2 4-1 18-1 7 2 2 2 1 6-2 12-5 9-8 15-3 1-1 20 1 14v18l-1 23v2h-2l-2-9-1-10v-13l1-11h2l-1-5 1-3-1-9v-18l4-10 3-5 4-8 3-8-1-7-2-2h-18l-10-5-4-1v-2l-5-1z" fill="#D1D9D6"/>
<path transform="translate(590,1139)" d="m0 0h1v7l-5 11-1 3h-2l-8 7-9 5-14 5h-22l-13-2v-1h15l6-1v-2l9-2 12-8 8-6h3v-2l7-4h2l2-4h2v-2z" fill="#94979E"/>
<path transform="translate(436,1086)" d="m0 0 14 8 11 4 13 3 29 3 6 2 1 3-5 3-5 1h-18l-18-3-13-5-9-6-7-8z" fill="#FCFCFA"/>
<path transform="translate(412,1277)" d="m0 0h1l2 18v35l-13 3-28 4-11 1h-47l-9-1-2-2 40 1 12-1 10-2 7-1 10-2 8-1 6-2 6-1 3-2-1-16v-14l4-10v-6z" fill="#821011"/>
<path transform="translate(431,604)" d="m0 0 9 2 13 3v1l-6 1-4 9-10 3-3 8 2 8-9 2h-7l-4-6v-7l3-7 5-7 8-4 2-2z" fill="#051660"/>
<path transform="translate(623,197)" d="m0 0h11l5 5 2 5 4 2 2 12 1 2-2 3-4-4v-2h-2v-3h-2l-2-2-10-3h-7l-13 8h-2v2h-2l2 5-6-2-2-3 3-4 1-6 8-8 10-5h5z" fill="#E1B67B"/>
<path transform="translate(655,1378)" d="m0 0 2 4h-2l-1 8h-2v7l-4 14-2 18-1 2-2 15-3 12 3 7 7 9 4 4 3 5 6 7v2l3 1v2l4 2 17 13 15 9 16 7 9 4 2 3-4-1-15-4-4-2v-2l-10-3-7-4-4-4-7-4-5-5-14-13-9-11-8-10-5-8 1-26 4-20 2-7 6-18z" fill="#68171A"/>
<path transform="translate(740,715)" d="m0 0 2 3 3 7v4l-8 5-21 1-9-1-10-4-10-6-1-3-3-1 2-1 8 6h6l4-1v-2l9-4 14 1 6 1 6-2z" fill="#E2B77C"/>
<path transform="translate(427,674)" d="m0 0 3 1-12 6-19 7-5 1v2h-3l6 20 5 10 3 7 5 12 7 15 10 23-1 3-7 1-1-5-5-15-5-11-5-16-10-19-5-10-2-9 2-7 6-5 12-5z" fill="#682124"/>
<path transform="translate(772,643)" d="m0 0 4 2 7 11 8 16 9 16 4 9-1 3-12-9-9-9-7-11-5-13-2-12z" fill="#94979D"/>
<path transform="translate(754,504)" d="m0 0h1l1 10 3 1v2l3 1 6 10 2 3 4 1-1 21 1 17-2 3h-2l-1 2-5-2 1-3h2l1-4 2-3v-5l-5 8-1-2 2-6-1-2 3-3 2-6v-7l-3-6-2-3-1 12-6 16-9 8-4 5-1 3v13l2 3-4 2-6-1-3-2-1-7 5-9 8-7 7-7 5-9 3-8 1-12-4-10-4-5z" fill="#7F7D84"/>
<path transform="translate(670,1253)" d="m0 0 1 3h2v2l3 1 3 3 5 3 4 1 3 2-1 2 1 1 4 1 6 7 3 2v2l3 1 5 7 7 20 3 3 1 4-8 4-9 2 1-2h3l1-6-3-4-7-20-8-8-5-8-8-10-8-5-2-3z" fill="#D1D9D6"/>
<path transform="translate(454,634)" d="m0 0h3l-2 5-4 7-1-2-33 6-23 4-19 5-10 5-2-1 5-6 9-5 11-2v-2l12-2 4-2 44-9z" fill="#E2B77C"/>
<path transform="translate(744,608)" d="m0 0 4 1 7 8v2h2l8 11 2 5-8 8-5 2-9-6-4-6v-14l-2-4 1-4z" fill="#162BB0"/>
<path transform="translate(614,1240)" d="m0 0h3v2l8 1 4 1 22 1 24-2 18-3h6v1l-10 2h-7v2l15-3 12-1h37v1l-30 1-11 1-10 2-13 1-11 3-2 1-2-1v-2l-9 1h-20l-6 1h-9l-5 3-5 6-3 5-3 8-2 1 2-11 6-20z" fill="#681B1D"/>
<path transform="translate(428,780)" d="m0 0h7l4 1v4h2l1 4-1 11-6 8-5 3h-2v3l-7 2h17v5l-4 4-1 3 9 1 2 5 1 7v11l-5 8-4 3-3 1h-7l4-2 7-4 3-5v-7l-3-9v-5l-13-2v-2l8-6 2-4h-12l-21 2h-27v-1l7-1 17-1 22-4 14-7 4-6-1-11-3-1v-2l-8-1-3-3z" fill="#8D8F92"/>
<path transform="translate(370,835)" d="m0 0 8 1 13 5 22 5 5 4-1 4-3 3-4 1h-11l-11-4-10-6-6-7z" fill="#FCFCFA"/>
<path transform="translate(623,1340)" d="m0 0h5l2 10 3 25 1 3h2l3 14v7h2l1-2-1 6-4 8-2-1v-2h2l-3-10-6-15-1-5-2-25v-5h-3l-1 7h-2l-3 9-4 5-3 1v-8l5-12h2l4-9z" fill="#D1D9D6"/>
<path transform="translate(622,1183)" d="m0 0 20 1 17 2 43 1 1 2-11 4-9 1h-24l-19-2-19-5z" fill="#FCFCFA"/>
<path transform="translate(410,472)" d="m0 0 3 4 2 8 3 5 6 2 4 6 2 13 7-1v6h2l5 8v2l3 1h-3v2l-4 1-4-2v-2h-2l-7-8-8-11-8-17-3-10 2 1z" fill="#68626D"/>
<path transform="translate(338,399)" d="m0 0 8 2 11 8 1 2-5-2-6-2-5 10-1 16-1 7 4 16 4 12v2h-2l-8-23-5-18-2-10v-13l3-5z" fill="#C2C5C7"/>
<path transform="translate(626,507)" d="m0 0h8l-1 9-3 1-4 8-5 5-9 13h-2l-2 5-9 9-11 8h-3v2l-15 7-14 5h-4l1-3 14-6 16-7 11-7 11-10 11-16 6-18z" fill="#DFB276"/>
<path transform="translate(625,76)" d="m0 0h3l8 30 10 40 5 27 1 15-2-4-4-26-7-31-8-30-3-11v-3l-5 2-9 9-9 12h-2l-2 4-10 14-12 18-11 21-7 17-2 6-1-3 6-17 8-16 9-16 3-6 5-5 3-7 5-6 5-5 3-6 11-13z" fill="#8C1919"/>
<path transform="translate(636,725)" d="m0 0 2 4-5 15v7l-2 3 1 5 4 6 9 6 2 3-4-1-10-7-13-8-4-3-5 1-3 6-5 2 1-6 5-6 6-3 5-4 4-2 7-13z" fill="#091960"/>
<path transform="translate(824,1530)" d="m0 0h6l-3 9 1 7-2 3 2 1-9 1-9-1h-12v2l-17 1-2-3 5-2 12-3 14-5 8-5h3l-1-2-11 1v-1z" fill="#8D8F93"/>
<path transform="translate(597,1311)" d="m0 0 1 4v11l1 18 2 13 3 24h2v18l4 14 8 25-2 1v-2h-2l-7-18-6-21-3-21-2-28-1-7v-24z" fill="#69677C"/>
<path transform="translate(385,685)" d="m0 0v3l-4 4-1 7 4 15 5 12 5 13 6 18 2 11v8l-1 4h-2v2h-2v2l-5 3h-13l-2-3v-3l6 1 9-6 2-1 2-5 1-7-6-22-8-20-4-11-2-15v-3h2l2-4z" fill="#E1B67B"/>
<path transform="translate(441,1135)" d="m0 0h3l7 8 14 10 2 2-3 1-13-3-16-5-10-2-7 1h-11l4-3 16-7h14z" fill="#95989F"/>
<path transform="translate(448,820)" d="m0 0 1 2 6 2 2 2 2 18 1 7v11l1 5 1 14v16l-2 3-2-3v-7l-3-20v-8l-3-1-1-9v-15l-2-9-1-1z" fill="#2E3FFA"/>
<path transform="translate(857,1368)" d="m0 0h3v26l-4 3 1 6-4-1v-2l-4-2-4-9-5-14v-2l16-4z" fill="#C78F47"/>
<path transform="translate(820,1532)" d="m0 0 2 1-1 2-16 8-11 4-14 3h-4l-1-6-7-4 1-2 4-1 20-1 1-1 21-2z" fill="#C5C7CA"/>
<path transform="translate(734,1231)" d="m0 0h10l11 6 4 4-1 2-12-1h-37l-16 2-11 1v-2l17-3h4v-2l12-2z" fill="#820E0E"/>
<path transform="translate(512,424)" d="m0 0h1v16l-1 1-1 11-6 18-5 5-12 11-5 3-10 3-5-1-2 2-5 1-15-1-4-2 22-1-1-8 8 3 5 1 7-3h3l1-3h3v-2l6-5 4-6 4-10 4-17 2-11z" fill="#05155E"/>
<path transform="translate(593,1083)" d="m0 0 3 2v7l-4 6-3 2-6 1-15 8-21 5-17 2 6 1v1h-25l-8-1 4-2 26-2 17-4 10-3 15-7 10-6 1-2h3v-2l3-3z" fill="#95989F"/>
<path transform="translate(323,311)" d="m0 0h2v12l-4 12-5 9-7 1-3-4-2-7 1-7 6-4 10-10z" fill="#E8C183"/>
<path transform="translate(468,1046)" d="m0 0h1l3 22-1 11 4 3 10 3v1h-9v-2l-6-1-11-6-1-3-3-1-3-7 1-7 7-2h8z" fill="#7D7B82"/>
<path transform="translate(619,1112)" d="m0 0h1l3 15 4 7 14 7 13 2v1h-9l-13-2-16-7-15-11 2-4 6-4 5-2h5z" fill="#7D7B82"/>
<path transform="translate(590,1150)" d="m0 0h2l4 11 8 10 1 6-7 10-2 5h-2l-2-9-5-18-2-9 3-5z" fill="#F9F9F7"/>
<path transform="translate(280,250)" d="m0 0 6 2 13 7 10 7 11 9 6 8-1 2-4-2v-3l-5-2-10-1-8-5-7-4-3-6v-5l-5-3v-2h-3z" fill="#B27845"/>
<path transform="translate(447,1045)" d="m0 0 4 2 1 4-1 3-2 1 1 12 5 8 10 7 11 2v2l40-1-4 2-9 1h-14l-17-1-12-5-8-5-3-3v-2l-3-1-4-7-2-5-7-3 5-6z" fill="#93959C"/>
<path transform="translate(348,1182)" d="m0 0 3 1-3 3-6 3-5 5-13 8-17 12-3 1-1 3-4 3h-2l-1 3-8 7h-2l-1 3h-2v2l-8 7-12 12-2-1 7-8 12-13 8-8 11-9 15-12 22-15 7-4h3v-2z" fill="#791415"/>
<path transform="translate(588,1146)" d="m0 0h2l-1 5-3 6-1 3h-2l-8 7-9 5-14 5h-22v-1l21-2v-3l4-2 3-1 11-7h2v-2l7-4 9-7z" fill="#88898D"/>
<path transform="translate(863,1461)" d="m0 0h1l1 23-2 28-3 14-6 10-8 7-7 4-4-1 6-2 1-2 5-2v-2h2l2-4 3-5 2-13 1-2 1-14 2-11 1-13 1-3z" fill="#6B6571"/>
<path transform="translate(561,1057)" d="m0 0 3 1v6l-5 6-7 3-5 3-6 1v2l-9 3-4-1 11-3-2-9h2l2-4 6-4 8-3z" fill="#8C8E91"/>
<path transform="translate(621,645)" d="m0 0h1v8h2l3 6 13 16 7 8 9 10 9 11 4 5-2 4-3-6-16-16-8-7-3-3v-2l-4-2-7-8-5-11z" fill="#B7874D"/>
<path transform="translate(398,683)" d="m0 0 3 1-10 6-1 5 2 10 6 12 2 9h2l8 19 6 15 3 5 5 11v4l2 1-7 1-1-5-5-15-5-11-5-16-10-19-5-10-2-9 2-7 6-5z" fill="#B22120"/>
<path transform="translate(518,613)" d="m0 0 10 1h23l16 7-3 1-4-2h-9l-3 1h-13l-14-2-29-2-3-2 8-1z" fill="#B67A43"/>
<path transform="translate(776,653)" d="m0 0 3 1 8 14 6 11 4 7 1 7-4-2-7-6-9-13-4-10v-6z" fill="#7F7D84"/>
<path transform="translate(413,1295)" d="m0 0h2v35l-13 3-28 4-11 1h-47l-9-1-2-2 40 1 12-1 10-2h18l22-4 5-5z" fill="#691012"/>
<path transform="translate(614,921)" d="m0 0 3 3 2 6 4 11 9 25 3 10 5 11 3 10 4 8 2 7 5 12 5 13 3 9 8 20 3 8-1 4-10-25-18-47-7-19-13-34-5-15-5-14z" fill="#1F2C6D"/>
<path transform="translate(852,1404)" d="m0 0 4 1v3l3 6-1 4 1 4 1 1 5 1 2 5 1 1v14l-3 5-3 1-1 3-5-25-4-18z" fill="#C48D48"/>
<path transform="translate(337,891)" d="m0 0h4v13l-2 19-4 6-10 4h-19l5-4 12-3 9-6 4-9 1-6z" fill="#6C666F"/>
<path transform="translate(696,205)" d="m0 0 7 1 29 8 12 4 16 8 4 1 1 4-9 1-10-6-9-4-3-3-9-1-12-5-11-5-6-2z" fill="#2D3EF3"/>
<path transform="translate(583,492)" d="m0 0 7 1-3 2-16 7-13 4-20 4-9 1h-42l-1 3v-4l4-1 39-2 16-2 19-5 10-3 3-1v-2z" fill="#E5BA7D"/>
<path transform="translate(388,709)" d="m0 0 3 1 8 15 6 12 4 14 6 13 4 13 1 4 4 1-2 2h-9l-1-3v-7l-2-9 1-2h-2l-3-10-5-15-4-8-9-19z" fill="#B87E44"/>
<path transform="translate(740,215)" d="m0 0h14l12 1 4-1 2 1h11l3-1-1 3-19 9h-6l-21-10z" fill="#08185F"/>
<path transform="translate(857,1503)" d="m0 0h2l-1 11-2 9-2 7-5 8h-2v2l-8 5-2-1 3-3-3-3 2-3 1-4h2v-2h2l2-4 4-6 1-5 5-8z" fill="#7D7B83"/>
<path transform="translate(427,761)" d="m0 0h14l1 4v10l-11 3-3 1-1-4h-2l-5-11v-2z" fill="#979AA0"/>
<path transform="translate(454,634)" d="m0 0h3l-2 5-3 3v-3l-27 5-11 2-9 3-7 2-1 1-11 2h-7v-2l9-2v-2l12-2 4-2 44-9z" fill="#BB9366"/>
<path transform="translate(230,1312)" d="m0 0 3 1 4 8 3 3 3 1v2l4 1 6 5 14 7 9 3 12 3 4 2 5 1 7 2 6 1 2 3h-9l-26-7-16-7-12-7-9-7-9-9z" fill="#8E9093"/>
<path transform="translate(704,1546)" d="m0 0 6 1 13 4 9 1h40l8-1 2 1h16v-2l7-1h9l5 1-4 2-30 3-19 1h-24l-21-3-16-5z" fill="#7E7C83"/>
<path transform="translate(600,766)" d="m0 0v3l-9 10-8 7-4 7-2 8-1 16-2-1v-17l-9-2 1-4 7-4 1-3h2v-2l6-4 5-2 5-8z" fill="#081965"/>
<path transform="translate(693,1240)" d="m0 0h6v1l-10 2h-7v2l15-3 12-1h37v1l-30 1-11 1-10 2-13 1-11 3-2 1-2-1v-2l-32-1-5-1v-1h21l24-2z" fill="#755258"/>
<path transform="translate(759,549)" d="m0 0 1 2-5 10-10 11-1 3v13l2 3-4 2-6-1-3-2-1-7 5-9 8-7 7-7 6-10z" fill="#9699A0"/>
<path transform="translate(745,700)" d="m0 0 3 1 2 5 4 2 3 2v2l3 1v2h2l4 6v5l-3 1-9-5-5-5v-3h-2l-2-6-2-1v-6z" fill="#FCFCFA"/>
<path transform="translate(372,772)" d="m0 0 2 3 7 14 2 2h-7l-13-2-2-1v-2h-2l1-4 3-6z" fill="#8D8F92"/>
<path transform="translate(522,341)" d="m0 0h3l-4 17-1 6h-2l-1 16-1 29-2 24h-1l-1-5h-1v-7l2-4-1-4v-11l1-7 2-28 2-13 4-12z" fill="#071867"/>
<path transform="translate(383,532)" d="m0 0 12 4 7 2 17 2-3 2h-3l-1 3-5 1-31 1 3-3h12l-4-6-4-4z" fill="#8C8E91"/>
<path transform="translate(443,665)" d="m0 0 1 3-4 14-3 13-4-4-8-12 1-3 4-1v-2l10-4z" fill="#14289F"/>
<path transform="translate(698,735)" d="m0 0 7 3 7 2 11 3h14l11-2 5-1 3 5v2l-12 1h-17l-16-4-13-7z" fill="#C48E4E"/>
<path transform="translate(442,770)" d="m0 0h1l2 19v10l-5 10-9 4h-3v-2l9-6 3-5 1-15h-2v-4h-11l-4 1 2-4 1-3 1 4 5-3 9-1z" fill="#8C8E91"/>
<path transform="translate(655,1378)" d="m0 0 2 4h-2l-1 8h-2v7l-4 14-2 18-1 2-2 15-2 6h-1v-10l1-11h-1l1-11 2-5 3-13 3-6 4-13z" fill="#7E0D0E"/>
<path transform="translate(604,1234)" d="m0 0 6 2 4 3-2 9-6 22-2-1-2 2 1-9v-25z" fill="#EFF0EF"/>
<path transform="translate(802,1333)" d="m0 0 9 2 2 4 6 7 4 19v7l-2-1-2-6-2 1-1-3-2-1v-2l-2-1v-9l3 1-3-7-3-1-1-4-4-2v-2h-2z" fill="#A61D1D"/>
<path transform="translate(626,507)" d="m0 0h8l-1 9-3 1-4 8-5 5-4 6-2-4 3-9 5-12z" fill="#D4A467"/>
<path transform="translate(650,1482)" d="m0 0 5 3 11 12 8 7 4 3v2l5 2-1 3h-5v-2l-4-1v-2l-4-2-4-3v-2l-4-2-4-4v-2h-2l-5-7z" fill="#BABCBF"/>
<path transform="translate(662,1249)" d="m0 0 1 4-5 4-11 8-3 2-2-5-1-9 3-3h13z" fill="#A81B1B"/>
<path transform="translate(635,459)" d="m0 0 1 3-3 8 1 1 9 1v1l-19 1-12 4-3-1 4-6 5-3 8-4 9-3z" fill="#95989F"/>
<path transform="translate(586,1099)" d="m0 0h3v3l-6 4-7 3-5 3-15 3-1 1-7 1h-20l2-2 17-2 21-5 15-8z" fill="#818087"/>
<path transform="translate(892,642)" d="m0 0 1 2-6 8-9 9-10 7h-2v2l-13 8h-4l-1 3-7 3-12 1-7-3-5-3-3-7v-7l2 3 3 7v3l5 2 4 2h7l12-4 3-2h3v-2l8-4 14-10 9-9h2v-2l4-4z" fill="#D1D9D6"/>
<path transform="translate(418,490)" d="m0 0h5l5 7 2 13 7-1 1 9-7-3-4-3v-2h-2l-6-10-2-5z" fill="#EDECE9"/>
<path transform="translate(724,1120)" d="m0 0 3 2v2l-6 5-14 6-9 1 2-5 2-3 11-4 6-3z" fill="#8D8F93"/>
<path transform="translate(444,799)" d="m0 0h1v9l-4 5h5v10l1 9-3-4-7-2 3-6 1-5-25 2 4-2 17-5 3-1 2-5z" fill="#6B646D"/>
<path transform="translate(853,369)" d="m0 0 3 3v12h-1l-2 10-4 5-4 1h-4l-4-4v-2l-5-6v-2h-2v-2h-2l-2-5h2l6 7v2l4 2 6 4 4-2 2-3z" fill="#D1D9D6"/>
<path transform="translate(655,1258)" d="m0 0h3l-2 4-14 16-2 3h-2l-2 5-2 4h-3l-1 5h-1l1-7 6-11 6-8 7-7z" fill="#F4F0E8"/>
<path transform="translate(438,667)" d="m0 0 4 1-3 3-21 7-15 4-12 6-3 4-1 7 2 10-4-2-2-4v-9l3-6 9-5 10-4 16-5 10-5 5-1z" fill="#C08544"/>
<path transform="translate(436,532)" d="m0 0h3l-2 4-17 9-9 3-6 1h-15l-12-2v-1l29-1 5-1 1-2 15-5z" fill="#E3B77A"/>
<path transform="translate(764,530)" d="m0 0 5 5 2 5v7l-3 7h-2l-2 7-7 8-2-1 2-5 5-11 2-7z" fill="#6B646D"/>
<path transform="translate(470,1062)" d="m0 0h1l1 12-1 5 4 3 10 3v1h-9v-2l-6-1-4-4-5-3-4-6 2-4 7-1 3 1z" fill="#6C666F"/>
<path transform="translate(623,643)" d="m0 0 2 2 3 6 3 4v2h2l2 6h2l10 13 1 3 3 1 9 11 4 4-1 4-1-3-4-2-13-15-9-11-12-16z" fill="#E8BE80"/>
<path transform="translate(608,487)" d="m0 0 3 1-5 6-14 7-10 3h-7l-2-2 8-4 16-6z" fill="#FFEAAF"/>
<path transform="translate(866,601)" d="m0 0 8 2 4 4-3 1-4 10-7 8-7 4-8 1v-2l9-4 6-5 3-9v-6z" fill="#93959B"/>
<path transform="translate(465,1155)" d="m0 0 6 1 19 9 15 5v2h7l5 1-3 2-8-1-18-6-12-5 1 9-4-5-6-8z" fill="#6C292D"/>
<path transform="translate(509,514)" d="m0 0h16l6 2v2l-8 3-6 1h-13l-2-4 5-3z" fill="#FFEAAF"/>
<path transform="translate(684,1108)" d="m0 0h3l3 10 2 3 3 10 2 6-7 3h-10l8-4-1-7-2-8v-8z" fill="#0E1E66"/>
<path transform="translate(352,684)" d="m0 0h1l1 21 3 12 5 15 3 11v10l-2-3-9-27-3-22v-12z" fill="#FADC9C"/>
<path transform="translate(626,80)" d="m0 0 3 1 7 25 10 40 5 27 1 15-2-4-4-26-7-31-8-30-3-11v-3l-5 1v-2z" fill="#8D1919"/>
<path transform="translate(563,448)" d="m0 0h5l4 7v8l-2 5-5-1-4-7v-10z" fill="#E5E6E5"/>
<path transform="translate(579,1101)" d="m0 0 2 1-13 7-21 5-17 2 6 1v1h-25l-8-1 4-2 33-2 14-3 13-4z" fill="#8D8F93"/>
<path transform="translate(684,1103)" d="m0 0h3l1 4h7l3 1 1 5-4 15h-2l-6-18-1-6z" fill="#C5C8CA"/>
<path transform="translate(767,1540)" d="m0 0 4 1 5 3v6l3 1-7 2h-3v-3l-3 2h-5l4-1v-2l-2-1 1-3h-10v-3z" fill="#989AA0"/>
<path transform="translate(446,653)" d="m0 0 1 2-3 7-2 1-7 1-7 4-9 5-10 4h-4l2-4 14-6 10-5 5-3 8-2z" fill="#EBC281"/>
<path transform="translate(301,1214)" d="m0 0 2 1-4 6h-2l-1 3-8 7h-2l-1 3h-2v2l-8 7-12 12-2-1 7-8 12-13 8-8 11-9z" fill="#812525"/>
<path transform="translate(583,1109)" d="m0 0 1 3-7 8-5 5-10 4-5 1h-16v-1l17-4 12-5 8-6z" fill="#828188"/>
<path transform="translate(434,820)" d="m0 0v3l-5 6h9l3 3 1 9 1 1v14l-5 6-5 2h-7l4-2 7-4 3-5v-7l-3-9v-5l-13-2v-2l8-6z" fill="#94979D"/>
<path transform="translate(428,780)" d="m0 0h7l4 1v4h2l1 4-1 11-6 8-5 3h-2v2h-5l5-4 7-4 3-5-1-11-3-1v-2l-8-1-3-3z" fill="#9699A0"/>
<path transform="translate(509,460)" d="m0 0h1l1 7 12 6 11 6 2 3h4l1-3 4-2 10-1 1 2-12 2-4 4h-6v-2l-6-1v-2l-7-1-3-3-1-2-10-2z" fill="#D1D9D6"/>
<path transform="translate(624,473)" d="m0 0h22l2 2h-12l-10 1-5 3-13 4-17 8-1 2-4-1 1-2 16-8 4-1 1-3z" fill="#D2A46B"/>
<path transform="translate(506,1193)" d="m0 0 5 2-3 3-5 1-1 3-9 3h-3l-1-10 5-1z" fill="#C01D1D"/>
<path transform="translate(309,876)" d="m0 0h6l10 6 3 3v2h2v3l-16 1 1-9-6-4z" fill="#636177"/>
<path transform="translate(597,1311)" d="m0 0 1 4v11l1 18 2 13 1 13h-1l-1-9h-3l-2-19v-24z" fill="#6C6875"/>
<path transform="translate(438,662)" d="m0 0h6l-2 5-8 3-4 1-15 6-14 4-6 3-3-1 10-5 16-5 8-5 8-4z" fill="#D8A869"/>
<path transform="translate(492,831)" d="m0 0 7 1 6 41v6h-1l-3-14-3-12-3-13-2-2z" fill="#040B39"/>
<path transform="translate(400,821)" d="m0 0h5l1 4-7 3h-16l-4-3v-2l2-1z" fill="#FCFCFA"/>
<path transform="translate(531,1039)" d="m0 0 15 2v1h-12v2l6 1v2h3l1 7-7 6-1-4h-2l-2-14z" fill="#C3C5C8"/>
<path transform="translate(441,1135)" d="m0 0h3l7 8 14 10 2 2-3 1-5-4-7-3-6-4-3-3-3-1-12-1-1-3h14z" fill="#86868B"/>
<path transform="translate(505,622)" d="m0 0h17l17 1 23 3 2 1v2h-11l-5-2h-14l-16-2-16-1z" fill="#C59B6D"/>
<path transform="translate(797,1348)" d="m0 0 4 1v2l6 1 3-1 1 9v3l-2 3h-2l1 7-1-3-2-1-2-4-1-4-3-8 1-2-3-1z" fill="#A81B1B"/>
<path transform="translate(752,1321)" d="m0 0 17 1 15 3 1 2-8-1-5-1h-33l-17 2-11 1 3-2 14-3z" fill="#AD1E1E"/>
<path transform="translate(308,927)" d="m0 0h12l-3 2-8 2-1 1h17l10-4 2-1v6l-2 2h-33l-2-2z" fill="#85848B"/>
<path transform="translate(584,461)" d="m0 0 3 4-1 14-2 3-4 1-2-6-3-3-3-1v-2l7-2 4-5z" fill="#CACDCF"/>
<path transform="translate(221,228)" d="m0 0 7 1 26 8 21 8 16 8 12 7 1 2-5-2-23-12-23-9-20-6-12-2z" fill="#162CB1"/>
<path transform="translate(754,504)" d="m0 0h1l1 12 5 5 5 8-1 2-1 12-6 16-3 2 2-5 2-7 2-18-4-10-4-5z" fill="#909397"/>
<path transform="translate(575,290)" d="m0 0h18l10 3 10 6-2 1-10-5-5 1-4-2h-28l3-2z" fill="#88888F"/>
<path transform="translate(728,1531)" d="m0 0 14 2 3 1 13 1h25l10 1v1l-20 1h-21l-19-3-4-1z" fill="#8D3F40"/>
<path transform="translate(455,783)" d="m0 0 4 1v2l6 2 7 4 3 1 1 2 2 1 1 6-5-1-10-7-9-10z" fill="#DEBC87"/>
<path transform="translate(721,1234)" d="m0 0 3 1-2 1v3l4 2-29 2-15 2v-2l17-3h4v-2l12-2z" fill="#5A121B"/>
<path transform="translate(529,507)" d="m0 0h5l-2 3-3 1h-42l-1 3v-4l4-1z" fill="#E6BC7E"/>
<path transform="translate(413,1295)" d="m0 0h2v35l-13 3h-6l2-2 9-2 5-5z" fill="#681B1D"/>
<path transform="translate(764,532)" d="m0 0h1v13l-4 12-3 6-2 5 5-3-2 4-6 5h-4l1-6 8-11 5-14z" fill="#7F7D84"/>
<path transform="translate(405,734)" d="m0 0 3 1 11 24 8 19v2h-3l-5-13-3-6-6-13-5-12z" fill="#681C1E"/>
<path transform="translate(402,650)" d="m0 0h7v1l-28 6-15 6h-3l5-6 9-5h2v2z" fill="#E6C087"/>
<path transform="translate(604,480)" d="m0 0 3 1-17 9-10 4h-3v2l-5 3-8 1 4-4 9-5-1-2h8l12-6z" fill="#C29A6F"/>
<path transform="translate(604,1119)" d="m0 0 5 2 6 8v2l5 2 4 2 1 3-5-1-11-7-8-6 2-4z" fill="#95989E"/>
<path transform="translate(781,665)" d="m0 0 3 1 9 16 5 8v3l-4-2-4-4-5-9-3-6z" fill="#6B646D"/>
<path transform="translate(609,320)" d="m0 0 7 6 3 4 6 14 2 7 1 2-2 4-8-19-6-12-3-4z" fill="#D1D9D6"/>
<path transform="translate(551,1068)" d="m0 0h6v2l-10 6-6 1v2l-9 3-4-1 11-3-1-7 2-1v2z" fill="#7E7C83"/>
<path transform="translate(338,923)" d="m0 0 1 3-1 10-4 3h-13l-6-2-7-1-1-2h28l1-1z" fill="#C8CBCD"/>
<path transform="translate(777,670)" d="m0 0 4 5 8 11 9 7-1-5h3l4 9-1 3-12-9-9-9-5-7z" fill="#88888E"/>
<path transform="translate(404,644)" d="m0 0h6l-1 2h-2v2l-9 3-1 1-11 2h-7v-2l9-2v-2l12-2z" fill="#D3A870"/>
<path transform="translate(444,526)" d="m0 0 4 1h-2v2l-8 8-19 10-11 3h-18v-1l21-2 13-5 14-8v-5l6-1z" fill="#F9D998"/>
<path transform="translate(816,441)" d="m0 0m-3 1 4 1-2 1v2l-15 6-12 7-2 1 2-4 16-11z" fill="#CACDCF"/>
<path transform="translate(649,177)" d="m0 0h1l2 11 1 19-1 13-2 2-1-27-1-10z" fill="#B4804A"/>
<path transform="translate(626,475)" d="m0 0h7l-4 2h-2v2l-20 7-10 5-7 2 1-3 19-9 13-4z" fill="#E5BB7E"/>
<path transform="translate(447,639)" d="m0 0h5l-1 7-1-2-33 6h-6l4-2 16-3z" fill="#EBC383"/>
<path transform="translate(853,1362)" d="m0 0 5 3-1 4-7 2-11 2-1-5 13-2z" fill="#FCE3A7"/>
<path transform="translate(709,1241)" d="m0 0h37v1l-30 1-11 1-10 2h-13l3-2 12-2z" fill="#7E797E"/>
<path transform="translate(915,663)" d="m0 0 1 2-7 11-11 13-4 1 3-7 9-9 5-6 1-3z" fill="#9699A0"/>
<path transform="translate(388,538)" d="m0 0 9 3 8 2 3 2-1 1-31 1 3-3h12z" fill="#7F7D84"/>
<path transform="translate(480,1181)" d="m0 0 3 3 5 15v9l-2-3v-3h-2l-3-10-3-6v-4z" fill="#CED1CC"/>
<path transform="translate(604,1179)" d="m0 0h2l3 6v10l-5-1-4-6 2-6z" fill="#93969C"/>
<path transform="translate(769,557)" d="m0 0 2 1-1 7-3 5h-2l-2 5-6 7-4-1 10-13z" fill="#6E6871"/>
<path transform="translate(598,1361)" d="m0 0h2l3 12v12h-2v6h-1l-2-14z" fill="#86868C"/>
<path transform="translate(580,567)" d="m0 0 3 1-13 6-14 5h-4l1-3 14-6 7-2 2 1z" fill="#E2B677"/>
<path transform="translate(857,582)" d="m0 0 10 1 9 2 11 5 9 4 5 4 1 4-2 4-2-8-12-6-18-6-11-3z" fill="#D2DAD7"/>
<path transform="translate(334,891)" d="m0 0h3l1 5v9l-2 8-3 7-5 4-5 3-3-1 9-6 4-5 2-11z" fill="#7F7D84"/>
<path transform="translate(373,780)" d="m0 0 4 1 4 8 2 2h-7l-10-3 4-5z" fill="#818087"/>
<path transform="translate(444,663)" d="m0 0h2v7l-3 14-2 9-3 2 1-13 4-14z" fill="#2F40FB"/>
<path transform="translate(847,531)" d="m0 0 22 1 6 1v1l-48 1 3-2 3-1z" fill="#9699A0"/>
<path transform="translate(589,591)" d="m0 0 3 1-17 8-16 5h-5v-2l17-5 3-1 1-2 6-1z" fill="#811B1B"/>
<path transform="translate(759,1161)" d="m0 0h2l-2 4-17 8-17 6-2-1 10-5 21-9z" fill="#9699A0"/>
<path transform="translate(820,1308)" d="m0 0 9 1 5 1v2l4 2 8 15-1 2-7-11-4-5-5-2-7-1z" fill="#A75345"/>
<path transform="translate(427,497)" d="m0 0h1l2 13 7-1 1 9-7-3-4-3v-2h-2l-4-6 1-2 4 3z" fill="#C4C6C9"/>
<path transform="translate(800,1549)" d="m0 0h14l5 1-4 2-30 3h-7l4-2 1-1h15v-2z" fill="#818087"/>
<path transform="translate(869,603)" d="m0 0 7 1 2 3-3 1-4 10-1 2-4 1 2-6z" fill="#84848A"/>
<path transform="translate(337,918)" d="m0 0h1v7l-4 5-9 3h-8l-1-2 6-1 9-3 2-4z" fill="#071254"/>
<path transform="translate(341,1353)" d="m0 0h11l2 5-15 1-4-1v-2h3v-2z" fill="#8D8F93"/>
<path transform="translate(656,1032)" d="m0 0 2 3 4 11 8 20 3 8-1 4-10-25-7-18z" fill="#1F2B6A"/>
<path transform="translate(609,1413)" d="m0 0 2 2 6 20 1 4h-2v-2h-2l-7-18 1-4z" fill="#716C74"/>
<path transform="translate(844,1330)" d="m0 0 3 1 1 4h2l7 17v3h2l3 10-3-1-7-15-4-10-4-7z" fill="#DBB47E"/>
<path transform="translate(836,587)" d="m0 0 6 1 4 3v2l-4 2-7 8-4 3 2-5 4-6z" fill="#8B8C92"/>
<path transform="translate(366,1349)" d="m0 0h5l1 2-3 6-8 1-3-5 3-3z" fill="#8D8F92"/>
<path transform="translate(586,1099)" d="m0 0h3v3l-6 4-13 5-4-1h2v-2l15-8z" fill="#7F7D84"/>
<path transform="translate(407,815)" d="m0 0h6l-3 2 3 2-12 1h-27v-1l7-1 17-1z" fill="#919499"/>
<path transform="translate(846,276)" d="m0 0 9 1 6 3 6 7-1 3-3-1-3-5-8-4-12-1 1-2z" fill="#CACDCF"/>
<path transform="translate(655,1378)" d="m0 0 2 4h-2l-1 8h-2v7l-4 12-3 1-1 2 2-10 3-6 4-13z" fill="#78282B"/>
<path transform="translate(513,1128)" d="m0 0h28v2h9v1h-26l-10-1z" fill="#93969C"/>
<path transform="translate(331,396)" d="m0 0 6 1 2 2-5 3-4 10-3-3 1-10z" fill="#05155D"/>
<path transform="translate(612,1420)" d="m0 0 2 2 5 12 4 13-1 4-4-4-3-7 1-3-1-5-3-9z" fill="#828188"/>
<path transform="translate(535,1070)" d="m0 0 3 1 1 7-8 3h-6l3-5 4-2z" fill="#040D42"/>
<path transform="translate(640,994)" d="m0 0 4 4 3 7 2 7 5 12 2 9-2-1-14-36z" fill="#1B2662"/>
<path transform="translate(626,80)" d="m0 0 3 1 7 25 3 11v6l-2-3-9-34v-3l-5 1v-2z" fill="#991C1C"/>
<path transform="translate(587,1102)" d="m0 0 2 4-1 5h-2v2h-2l-2 5-5 4-2-1 7-7v-3l-1-3-3-1 8-4z" fill="#8B8D90"/>
<path transform="translate(497,831)" d="m0 0 8 1 14 3 7 2v3l-14-3-8-1-4-2v5h-1v-7z" fill="#202B64"/>
<path transform="translate(435,639)" d="m0 0m-12 1h12v2l-21 4-6 2-1-2 3-3z" fill="#C39A6A"/>
<path transform="translate(513,941)" d="m0 0h1l2 17 1 9h-3l-3-9v-9l1-1z" fill="#15246C"/>
<path transform="translate(515,393)" d="m0 0h1v16l-2 24h-1l-1-5h-1v-7l2-4-1-4v-10l2-1z" fill="#41497B"/>
<path transform="translate(522,341)" d="m0 0h3l-4 17-1 6-1-3h-2v-7l4-12z" fill="#24306C"/>
<path transform="translate(755,511)" d="m0 0 1 3 3 1v2l3 1 6 10 2 3 4 1v7l-5-5v-2l-3-1-7-11v-2l-4-2z" fill="#94979D"/>
<path transform="translate(472,1066)" d="m0 0 2 2 3 11 9 6-8-1-6-3-2-3z" fill="#081763"/>
<path transform="translate(643,675)" d="m0 0 8 5 9 11 4 4-1 4-1-3-4-2-13-15z" fill="#E8BF80"/>
<path transform="translate(567,574)" d="m0 0 3 1-7 3h-2l-1 3-7 3h-5l-1-2 5-5v2z" fill="#C68F47"/>
<path transform="translate(750,1148)" d="m0 0 3 1-5 5h-2l-2 4h-2v2l-4 3h-2v2l-9 5h-3l3-3 11-8 10-9z" fill="#D2DAD7"/>
<path transform="translate(648,485)" d="m0 0 5 1-4 3h-2l-2 5-5 5-14 2 1-2 7-3 9-3v-2l4-4z" fill="#C59B6D"/>
<path transform="translate(427,674)" d="m0 0 3 1-12 6-11 3v-2l-6 1 2-2z" fill="#922627"/>
<path transform="translate(620,1117)" d="m0 0h1l2 10 4 8-6-2-5-6 1-5z" fill="#6B646D"/>
<path transform="translate(309,876)" d="m0 0h6l-1 2 8 6v6l-2 1h-6l1-9-6-4z" fill="#92959B"/>
<path transform="translate(794,745)" d="m0 0 3 2 1 5-7 3h-10l-7-3-3-3 11 3h7l5-2z" fill="#D1D9D6"/>
<path transform="translate(438,667)" d="m0 0 4 1-3 3-18 6h-6l2-2 13-5 6-2z" fill="#C28946"/>
<path transform="translate(853,650)" d="m0 0h6l-2 3h-3v2l-5 4-8 1 2-4 7-4z" fill="#FCFCFA"/>
<path transform="translate(424,538)" d="m0 0 3 1-8 5-15 4h-9l-4-2 16-1 5-1 1-2z" fill="#C39665"/>
<path transform="translate(512,424)" d="m0 0h1v16l-1 1-1 11h-1v-6h-2l1-11 2-7z" fill="#182564"/>
<path transform="translate(441,1135)" d="m0 0h3l7 8 14 10 2 2-3 1-13-10-3-1-3-4-5-2z" fill="#5F5E71"/>
<path transform="translate(872,743)" d="m0 0v3l-11 12-11 7-3-1 5-2v-2l6-4 13-12z" fill="#95989F"/>
<path transform="translate(839,1359)" d="m0 0 5 1 1 1v5l-2 2-6 1-2-7h3z" fill="#CB944F"/>
<path transform="translate(828,1324)" d="m0 0 3 4 10 25v5l2 1-4-1-8-24-3-7z" fill="#DDB279"/>
<path transform="translate(427,761)" d="m0 0h12v3l-1 1h-10l-7 1-1-4z" fill="#828087"/>
<path transform="translate(453,609)" d="m0 0 20 2 17 1 2 2-3 1-2-1h-15l-14-2-5-2z" fill="#9D1F20"/>
<path transform="translate(383,532)" d="m0 0 12 4 7 2 17 2-3 2-18-2-14-5z" fill="#95989F"/>
<path transform="translate(485,507)" d="m0 0h44v1l-43 2v2l-3-1z" fill="#DBAA69"/>
<path transform="translate(824,1530)" d="m0 0h6l-3 8-3-1 1-2-4 2-6 1 3-3h3l-1-2-11 1v-1z" fill="#8C8D94"/>
<path transform="translate(772,553)" d="m0 0h1l1 17-2 3h-2l-1 2-5-2 1-3 5-4 1-2z" fill="#95989F"/>
<path transform="translate(625,504)" d="m0 0h7l-3 2-5 5-5 12-3 6-1-3 6-18z" fill="#AE201F"/>
<path transform="translate(648,191)" d="m0 0 2 4 1 29-4 6-1-4 2-3z" fill="#BE966A"/>
<path transform="translate(221,230)" d="m0 0 9 2-4 1 6 13-1 2-6-8-4-6z" fill="#9B2D2F"/>
<path transform="translate(490,1166)" d="m0 0 5 1 10 3v2h7l5 1-3 2-8-1-15-5z" fill="#6D363A"/>
<path transform="translate(625,665)" d="m0 0 5 5 2 3 5 3 8 10 3 4-4-2-7-7v-2l-4-2-7-8z" fill="#A25845"/>
<path transform="translate(478,613)" d="m0 0h9l2 1v2l-7 5-2-1 1-3-5 1-3 3-2-1 5-5h2z" fill="#142263"/>
<path transform="translate(863,1461)" d="m0 0h1l1 23-2 11h-1v-22z" fill="#3F4B9F"/>
<path transform="translate(387,692)" d="m0 0h1l1 10 12 24-1 3-10-19-3-7-1-6z" fill="#C11E1E"/>
<path transform="translate(669,1353)" d="m0 0h1l-1 7-2-1-4 12h-2v2l-3 1 1-5 7-12z" fill="#834245"/>
<path transform="translate(622,1121)" d="m0 0 6 9 9 8 2 2-5-1-9-6-3-6z" fill="#071663"/>
<path transform="translate(568,1118)" d="m0 0h2v3l-12 5-12 3h-5l3-2 17-5z" fill="#92959B"/>
<path transform="translate(364,660)" d="m0 0 2 1-2 2v3l-3 1-2 5-5 11-1-3 2-8 8-11z" fill="#FADC9C"/>
<path transform="translate(754,504)" d="m0 0h1l1 12 5 5 5 8-1 2-2 1-1-5h-2l-5-8-2-3z" fill="#828087"/>
<path transform="translate(605,486)" d="m0 0m-2 1h2v2l-10 5-18 7-4 1 3-3 21-9z" fill="#F9D998"/>
<path transform="translate(260,297)" d="m0 0 3 1 3 5 4 7 4 6 2 1 4 7 1 4-4-5-10-13-7-11z" fill="#142479"/>
<path transform="translate(367,774)" d="m0 0 2 1-6 13h-2v-2h-2l1-4 3-6z" fill="#9699A0"/>
<path transform="translate(833,607)" d="m0 0 2 1-1 5-6 4-4 1v-4z" fill="#FCFCFA"/>
<path transform="translate(565,1124)" d="m0 0 3 1-10 4-1 1h-16v-1l17-4z" fill="#7A777E"/>
<path transform="translate(773,647)" d="m0 0 4 2 2 5-4 2 1 9 1 5-3-4-2-10z" fill="#8D8F92"/>
<path transform="translate(333,912)" d="m0 0 1 3-5 6-9 6h-9v-1l9-3 5-3 1-2 5-3z" fill="#919398"/>
<path transform="translate(625,76)" d="m0 0h3l-1 3-4 2-9 11-9 10v-3l11-13z" fill="#030E44"/>
<path transform="translate(590,1112)" d="m0 0 2 1 3 12-1 7-3-1-1-13z" fill="#9699A0"/>
<path transform="translate(523,1094)" d="m0 0 7 1 2 1-1 5-4 4v-7l-14-1 4-2z" fill="#D2DAD7"/>
<path transform="translate(627,639)" d="m0 0h10l5 2v2l5 2 3 4-3 1-12-9-8-1z" fill="#DBB782"/>
<path transform="translate(561,1105)" d="m0 0m-1 1m-4 1h4v2l-14 4-13 1 4-2 13-3z" fill="#9699A0"/>
<path transform="translate(767,540)" d="m0 0 3 3-2 9-5 8-1-3 4-13z" fill="#0C1B74"/>
<path transform="translate(551,405)" d="m0 0h1l1 18 2 2v6l-1 3v7h-1l-2-11z" fill="#6D676F"/>
<path transform="translate(708,1545)" d="m0 0h8v2l4 1 10 3v1h-7l-16-5z" fill="#8D8F92"/>
<path transform="translate(597,110)" d="m0 0 1 2-3 7-8 11-4 1 2-4 4-4 3-7z" fill="#55142A"/>
<path transform="translate(658,1248)" d="m0 0h9v2l2 1-5 2-3-1 1-2-5 1h-10v-2z" fill="#840E0E"/>
<path transform="translate(604,1119)" d="m0 0 5 2 6 8v2l5 2-2 1-6-4-6-5-3-3z" fill="#8D8F92"/>
<path transform="translate(422,812)" d="m0 0 6 1-4 2-3 1h5l-4 2h-14l2-2h3v-2z" fill="#87878D"/>
<path transform="translate(623,643)" d="m0 0 2 2 3 6 3 4v2h2l2 6-7-6-4-5z" fill="#ECC282"/>
<path transform="translate(518,364)" d="m0 0h2v8l-2 18-2 1v-11z" fill="#A5A6AA"/>
<path transform="translate(426,775)" d="m0 0 2 4 5-3 8-1 1 2-4 2h-4v2h-6l-4 1 2-4z" fill="#848389"/>
<path transform="translate(507,1115)" d="m0 0h12v1l17 1v1h-25l-8-1z" fill="#9699A0"/>
<path transform="translate(612,751)" d="m0 0m-3 1h3l-1 4-3 6-5 2 1-6z" fill="#0F1F6A"/>
<path transform="translate(348,1182)" d="m0 0 3 1-3 3-6 3-1 2-7 2-6 4-2-1 10-7 7-4h3v-2z" fill="#6D3135"/>
<path transform="translate(444,789)" d="m0 0h1v10l-5 10-6 3-3-1 7-5 4-6z" fill="#7D7A82"/>
<path transform="translate(732,699)" d="m0 0h5v8h-5l-3-5z" fill="#F8D796"/>
<path transform="translate(606,483)" d="m0 0h6l-2 2-13 6-7 2 1-3z" fill="#E9BF80"/>
<path transform="translate(521,1147)" d="m0 0 6 1 1 1-1 7-8 5h-5l4-2 5-4 2-4-1-2z" fill="#D2DAD7"/>
<path transform="translate(600,1142)" d="m0 0h8l8 4-3 1-11-2-6 6 1-4z" fill="#D2DAD7"/>
<path transform="translate(766,531)" d="m0 0 3 1v2l4 2v9l-1 11h-1l-1-16-3-6z" fill="#88898E"/>
<path transform="translate(853,1362)" d="m0 0 5 3-1 4-4 1-1-2h-7l4-2h2z" fill="#F7D595"/>
<path transform="translate(390,541)" d="m0 0 5 2 4 3-23 1 3-3h12z" fill="#716C74"/>
<path transform="translate(626,501)" d="m0 0h9l-1 5h-5l-4-1-4 3 2-4z" fill="#BC8142"/>
<path transform="translate(592,292)" d="m0 0h9l11 6 1 2-5-2-8-3-4 1-4-2z" fill="#8B8C93"/>
<path transform="translate(446,653)" d="m0 0 1 2-3 7-2 1-8 1 2-4 8-3z" fill="#DCB67E"/>
<path transform="translate(625,1138)" d="m0 0 11 1 10 3 8 1v1h-9l-13-2-7-3z" fill="#86868D"/>
<path transform="translate(585,562)" d="m0 0h4l-1 3h-3v2l-9 3-3-1 8-5z" fill="#EDC687"/>
<path transform="translate(693,1243)" d="m0 0h12l-3 2-7 1h-13l3-2z" fill="#86858C"/>
<path transform="translate(415,760)" d="m0 0 3 2 6 14v4l2 1h-4l-3-11-4-8z" fill="#9A2724"/>
<path transform="translate(626,78)" d="m0 0 2 1-1 2-4 1-1 4-10 10 1-4 10-12z" fill="#7C1416"/>
<path transform="translate(480,1181)" d="m0 0 3 3 1 5-2 3-2-1-2-5v-4z" fill="#D0D5D3"/>
<path transform="translate(656,1032)" d="m0 0 2 3 4 11 3 9-3-2-7-18z" fill="#243173"/>
<path transform="translate(334,891)" d="m0 0h3l1 5v9h-2l-1 7-1-4 1-10z" fill="#88888D"/>
<path transform="translate(722,741)" d="m0 0h18l4 2-14 1h-7l-3-2z" fill="#C59B6D"/>
<path transform="translate(404,682)" d="m0 0h3l-1 3-9 4h-3v2l-2-1 5-5z" fill="#6E2C30"/>
<path transform="translate(694,540)" d="m0 0 5 2 6 10-1 2-5-6-6-5z" fill="#D2DAD7"/>
<path transform="translate(336,927)" d="m0 0h1v6h-8l-3 1h-8v-1l9-2 8-3z" fill="#6E6870"/>
<path transform="translate(589,591)" d="m0 0 3 1-12 6-8 1 3-4 6-1z" fill="#8A201E"/>
<path transform="translate(329,927)" d="m0 0 5 2v1l-9 3h-8l-1-2 6-1z" fill="#162CB1"/>
<path transform="translate(398,718)" d="m0 0 3 1 4 9 2 6-3-1-2-4v-3h-2l-2-5z" fill="#6C2426"/>
<path transform="translate(580,567)" d="m0 0 3 1-13 6-3-1v-3l7-2 2 1z" fill="#DEB275"/>
<path transform="translate(444,526)" d="m0 0 4 1h-2v2l-8 8-2-1 2-4v-3l6-1z" fill="#F0CB8A"/>
<path transform="translate(807,1541)" d="m0 0 3 1-9 5-5 1h-7v-1l13-4z" fill="#9699A0"/>
<path transform="translate(376,782)" d="m0 0 3 4 2 4-9-1-1-2h2l2-4z" fill="#6B646D"/>
<path transform="translate(844,679)" d="m0 0 4 1-4 3-7 1-8 1v-2l13-3z" fill="#D2DAD7"/>
<path transform="translate(623,663)" d="m0 0 3 4 5 8h-6l-2-7z" fill="#030B38"/>
<path transform="translate(622,658)" d="m0 0 4 2 3 6 5 8-3-1-5-7-3-3z" fill="#A8784B"/>
<path transform="translate(757,573)" d="m0 0 2 1-5 7 2 2-4 3h-3l2-6z" fill="#818087"/>
<path transform="translate(551,476)" d="m0 0 5 1-4 2-8 1-4 4-3-1 3-1 1-3 4-2z" fill="#D2DAD7"/>
<path transform="translate(426,816)" d="m0 0h12v5l-4 4-2-1 2-2v-4l-8-1z" fill="#909397"/>
<path transform="translate(403,755)" d="m0 0 3 3 3 14v9h-1l-3-16-2-6z" fill="#C59B6D"/>
<path transform="translate(655,1508)" d="m0 0 5 3 3 3 3 5 4 5-4-2-7-7-4-5z" fill="#838389"/>
<path transform="translate(603,1353)" d="m0 0h4l1 7-4 1-1-2z" fill="#820D0D"/>
<path transform="translate(314,1204)" d="m0 0 2 1-4 2zm-4 3 2 1-4 2zm-4 3h2l-1 4-3 1-1 3h-2l2-5z" fill="#771C1D"/>
<path transform="translate(309,876)" d="m0 0h6l-1 2 8 6v5h-3l1-5-5-2-6-4z" fill="#85858C"/>
<path transform="translate(427,674)" d="m0 0 3 1-12 6-5 1v-2l5-1v-2z" fill="#822E30"/>
<path transform="translate(609,426)" d="m0 0 6 1-4 2-5 2-5 6h-2v-2l5-5z" fill="#D2DAD7"/>
<path transform="translate(391,1199)" d="m0 0 5 1 9 4-1 2-8-2v-2l-5-1z" fill="#D1D9D6"/>
<path transform="translate(588,1106)" d="m0 0 1 4-3 1v2h-2l-2 5-5 4-2-1 7-7 1-2h2l2-4z" fill="#93969C"/>
<path transform="translate(631,467)" d="m0 0h2l1 4 9 1v1h-16z" fill="#87878B"/>
<path transform="translate(555,1070)" d="m0 0h3l-1 3-8 4-8 1 2-2 8-3z" fill="#92959A"/>
<path transform="translate(329,932)" d="m0 0 7 1-1 2h-19v-1z" fill="#89898F"/>
<path transform="translate(308,927)" d="m0 0h12l-3 2-14 3z" fill="#898A8F"/>
<path transform="translate(777,670)" d="m0 0 4 5 5 7-1 3-8-10z" fill="#919398"/>
<path transform="translate(595,555)" d="m0 0 3 1-5 5-4 3v-2l-2-1z" fill="#E5BA7A"/>
<path transform="translate(436,532)" d="m0 0h3l-2 4-9 4 2-4z" fill="#E6BC7E"/>
<path transform="translate(783,1552)" d="m0 0h13l-2 2-16 1 4-2z" fill="#85858B"/>
<path transform="translate(466,1318)" d="m0 0h6l-3 3-11 1v-2z" fill="#84838A"/>
<path transform="translate(434,820)" d="m0 0v3l-5 6h5v1h-10v-2l8-6z" fill="#9699A0"/>
<path transform="translate(647,537)" d="m0 0 2 1-3 8-5 3 2-5z" fill="#091B73"/>
<path transform="translate(599,484)" d="m0 0m-2 1h2l-1 3-7 3-1 2-4-1 1-2z" fill="#DCAC6C"/>
<path transform="translate(761,1541)" d="m0 0h5l-3 3v1h-9v-3z" fill="#93959B"/>
<path transform="translate(655,1378)" d="m0 0 2 4h-2l-1 8h-2v3h-2l3-10z" fill="#783F43"/>
<path transform="translate(601,1373)" d="m0 0h2v12h-2v6h-1v-10h2z" fill="#807E85"/>
<path transform="translate(680,1344)" d="m0 0 2 1-11 11-1-3 7-7z" fill="#B51E1D"/>
<path transform="translate(844,1330)" d="m0 0 3 1 1 4h2l2 5-1 4-7-12z" fill="#D7AD75"/>
<path transform="translate(747,1187)" d="m0 0 4 1v2h2l1 8-1 5h-1l-1-12h-2v-2h-2z" fill="#D2DAD7"/>
<path transform="translate(351,1182)" d="m0 0h6l-2 2-12 6-2-1 4-3h3l1-3z" fill="#7D0E0E"/>
<path transform="translate(591,1094)" d="m0 0 2 1-2 4-10 2 4-4z" fill="#8D8F92"/>
<path transform="translate(284,902)" d="m0 0 1 2 2 1-4 6-3 7-1-4z" fill="#CACDCF"/>
<path transform="translate(497,831)" d="m0 0 8 1 5 4h-6l-4-2v5h-1v-7z" fill="#495079"/>
<path transform="translate(622,679)" d="m0 0h1v5l-1 4h-2v2l-3-1 3-9z" fill="#030B38"/>
<path transform="translate(858,625)" d="m0 0h2l1 3-8 3h-4v-2z" fill="#9699A0"/>
<path transform="translate(620,510)" d="m0 0 2 3-3 10-3 6-1-3z" fill="#C11E1E"/>
<path transform="translate(883,457)" d="m0 0 4 2 4 4v2l-8-2z" fill="#05155D"/>
<path transform="translate(579,1104)" d="m0 0 3 1-6 4-6 2-4-1z" fill="#6B646D"/>
<path transform="translate(678,1091)" d="m0 0 3 3 3 7v3h2l-1 3v-2l-3-1-4-10z" fill="#2B3674"/>
<path transform="translate(379,787)" d="m0 0h11l3 2-12 1z" fill="#CE9F66"/>
<path transform="translate(420,762)" d="m0 0 7 1 11 1v1h-10l-7 1z" fill="#8C8D91"/>
<path transform="translate(385,685)" d="m0 0v3l-4 4-2 7-2-4v-3h2l2-4z" fill="#E2B77C"/>
<path transform="translate(887,464)" d="m0 0h6l9 5v2l-6-2-9-4z" fill="#3C4579"/>
<path transform="translate(626,80)" d="m0 0 3 1 3 10-1 4-3-9v-3l-5 1v-2z" fill="#9C1D1C"/>
<path transform="translate(598,1361)" d="m0 0h2l1 9-2 3-1-1z" fill="#7F7D84"/>
<path transform="translate(869,720)" d="m0 0h12l1 3-3 3-3-4-7-1z" fill="#D2DAD7"/>
<path transform="translate(625,665)" d="m0 0 5 5 7 8h-3l-8-9z" fill="#A11D1C"/>
<path transform="translate(845,599)" d="m0 0 5 3 3 9-2 3-2-1 1-5-4-6z" fill="#D2DAD7"/>
<path transform="translate(642,1416)" d="m0 0h3l-2 9-2 5h-1l1-10z" fill="#754043"/>
<path transform="translate(836,1316)" d="m0 0 4 1 6 12-1 2-7-11z" fill="#C49052"/>
<path transform="translate(751,1239)" d="m0 0 7 1v3l-12-1v-1l5-1z" fill="#AA1E1D"/>
<path transform="translate(469,1084)" d="m0 0h7v2h10v1h-14l-3-1z" fill="#94979D"/>
<path transform="translate(531,1039)" d="m0 0 15 2v1h-12l-1 2z" fill="#C4C7C9"/>
<path transform="translate(437,803)" d="m0 0v3l-7 5h-2v2h-5l5-4 7-4z" fill="#95989F"/>
<path transform="translate(551,767)" d="m0 0 5 1-4 6-2 1-1-3z" fill="#DCB882"/>
<path transform="translate(650,641)" d="m0 0 2 2v6l-4-2-1-4z" fill="#091A65"/>
<path transform="translate(781,552)" d="m0 0h1l2 6 5 1-1 3-5 1-2-5-1-5z" fill="#D2DAD7"/>
<path transform="translate(639,1430)" d="m0 0h3l-1 8-2 5h-1z" fill="#754145"/>
<path transform="translate(677,1339)" d="m0 0 3 1-11 10-2 2 1-4z" fill="#D0D7D5"/>
<path transform="translate(820,1308)" d="m0 0 9 1v3h-7z" fill="#BB8B5D"/>
<path transform="translate(301,1214)" d="m0 0 2 1-4 6-7 2 5-5z" fill="#742A2D"/>
<path transform="translate(443,1141)" d="m0 0 4 1 1 3 4 1 5 5-5-2-6-4z" fill="#8B8D90"/>
<path transform="translate(650,1019)" d="m0 0h2l4 11-1 3-5-11z" fill="#212B63"/>
<path transform="translate(636,766)" d="m0 0 5 2 6 5-3 1-8-6z" fill="#26326F"/>
<path transform="translate(799,688)" d="m0 0 3 4 2 5-1 3-4-4v-4z" fill="#92959A"/>
<path transform="translate(440,669)" d="m0 0 1 3-1 2h-10l2-2z" fill="#3A1336"/>
<path transform="translate(754,504)" d="m0 0h1l1 12 3 2v3l-4-2-2-3z" fill="#807E84"/>
<path transform="translate(371,503)" d="m0 0 6 3 1 3-7-2-3 1v-3z" fill="#D2DAD7"/>
<path transform="translate(837,1348)" d="m0 0h2l2 5v5l2 1-4-1-2-6z" fill="#DDB075"/>
<path transform="translate(597,1311)" d="m0 0 1 4v8h-1l-1 5h-1v-10z" fill="#6C6B82"/>
<path transform="translate(485,507)" d="m0 0 11 1v1l-10 1v2l-3-1z" fill="#D2A063"/>
<path transform="translate(447,498)" d="m0 0 4 1-1 4-4 1-1-5z" fill="#D6D8D9"/>
<path transform="translate(221,228)" d="m0 0 7 1 5 2v1l-13-1z" fill="#142AAA"/>
</svg>